<?xml version="1.0" encoding="UTF-8" standalone="no"?>
<!DOCTYPE svg PUBLIC "-//W3C//DTD SVG 1.1//EN" "http://www.w3.org/Graphics/SVG/1.1/DTD/svg11.dtd">
<svg xmlns="http://www.w3.org/2000/svg" version="1.1" viewBox="0.00 0.00 1254.00 1200.00">
<g stroke-width="2.00" fill="none" stroke-linecap="butt">
<path stroke="#e03619" vector-effect="non-scaling-stroke" d="
  M 1218.13 54.98
  L 1167.22 67.45
  A 1.62 1.62 0.0 0 1 1165.22 65.69
  L 1172.28 4.64"
/>
<path stroke="#ffd580" vector-effect="non-scaling-stroke" d="
  M 546.96 17.37
  Q 548.19 18.95 546.56 20.56
  Q 529.98 37.03 513.39 53.40"
/>
<path stroke="#c3b3cc" vector-effect="non-scaling-stroke" d="
  M 513.39 53.40
  L 501.08 40.94"
/>
<path stroke="#ac94a0" vector-effect="non-scaling-stroke" d="
  M 526.22 66.37
  L 513.43 53.72"
/>
<path stroke="#c3abb3" vector-effect="non-scaling-stroke" d="
  M 513.43 53.72
  Q 512.87 53.07 513.39 53.40"
/>
<path stroke="#7072ec" vector-effect="non-scaling-stroke" d="
  M 513.43 53.72
  L 498.93 68.06"
/>
<path stroke="#c3abb3" vector-effect="non-scaling-stroke" d="
  M 498.93 68.06
  Q 499.12 67.61 498.52 67.58"
/>
<path stroke="#c3b3cc" vector-effect="non-scaling-stroke" d="
  M 498.52 67.58
  C 489.42 60.41 478.88 72.78 486.39 80.28"
/>
<path stroke="#c3abb3" vector-effect="non-scaling-stroke" d="
  M 486.39 80.28
  Q 486.56 80.38 486.50 80.61"
/>
<path stroke="#7072ec" vector-effect="non-scaling-stroke" d="
  M 486.50 80.61
  L 479.70 87.35"
/>
<path stroke="#c3b3cc" vector-effect="non-scaling-stroke" d="
  M 479.70 87.35
  C 470.27 80.34 459.54 90.46 466.84 99.75"
/>
<path stroke="#7072ec" vector-effect="non-scaling-stroke" d="
  M 466.84 99.75
  L 440.92 125.40
  A 0.67 0.66 -39.8 0 1 439.91 125.31
  Q 439.01 124.04 437.40 124.25
  Q 436.90 124.32 436.53 124.67
  Q 408.44 151.45 382.37 180.19
  Q 382.01 180.58 381.48 180.55
  L 379.46 180.43"
/>
<path stroke="#7072ec" vector-effect="non-scaling-stroke" d="
  M 383.77 154.75
  L 385.00 153.80
  Q 385.38 153.50 385.61 153.06
  C 389.79 145.07 394.01 138.26 400.62 131.61
  Q 409.46 122.69 418.45 113.95
  Q 419.51 112.93 419.00 112.26"
/>
<path stroke="#ac94a0" vector-effect="non-scaling-stroke" d="
  M 382.22 188.32
  Q 380.84 188.61 380.02 189.97"
/>
<path stroke="#ac9cb9" vector-effect="non-scaling-stroke" d="
  M 380.02 189.97
  C 378.31 191.58 374.40 196.48 372.05 193.43
  A 1.38 1.37 -43.7 0 1 372.09 191.70
  L 376.22 186.86"
/>
<path stroke="#ac94a0" vector-effect="non-scaling-stroke" d="
  M 376.22 186.86
  Q 377.16 186.10 377.55 184.56"
/>
<path stroke="#ac9cb9" vector-effect="non-scaling-stroke" d="
  M 466.84 99.75
  Q 466.86 99.73 466.88 99.72"
/>
<path stroke="#ac94a0" vector-effect="non-scaling-stroke" d="
  M 466.88 99.72
  C 476.03 106.98 486.20 97.12 479.53 87.28"
/>
<path stroke="#ac9cb9" vector-effect="non-scaling-stroke" d="
  M 479.53 87.28
  Q 479.62 87.31 479.70 87.35"
/>
<path stroke="#ac94a0" vector-effect="non-scaling-stroke" d="
  M 486.50 80.61
  C 496.29 87.28 506.23 76.78 498.93 68.06"
/>
<path stroke="#ffd580" vector-effect="non-scaling-stroke" d="
  M 498.52 67.58
  Q 498.44 68.47 497.94 68.94
  Q 492.08 74.40 486.39 80.28"
/>
<path stroke="#ffd580" vector-effect="non-scaling-stroke" d="
  M 479.53 87.28
  L 466.88 99.72"
/>
<path stroke="#ffd580" vector-effect="non-scaling-stroke" d="
  M 376.22 186.86
  Q 372.05 185.49 368.04 187.30
  C 355.16 193.12 347.86 207.17 345.21 220.53
  A 0.68 0.68 0.0 0 0 346.04 221.33
  C 358.97 218.27 382.85 207.25 380.02 189.97"
/>
<path stroke="#e03619" vector-effect="non-scaling-stroke" d="
  M 102.77 201.57
  Q 100.17 201.26 99.54 199.19
  Q 88.55 163.15 77.44 126.78"
/>
<path stroke="#3abaaa" vector-effect="non-scaling-stroke" d="
  M 795.99 346.38
  C 789.76 332.77 785.31 318.64 783.43 303.72
  Q 782.57 296.85 781.57 290.22"
/>
<path stroke="#86d5bc" vector-effect="non-scaling-stroke" d="
  M 782.33 418.89
  Q 746.33 431.80 714.64 452.78"
/>
<path stroke="#4a786a" vector-effect="non-scaling-stroke" d="
  M 714.64 452.78
  L 710.75 453.79"
/>
<path stroke="#4a786a" vector-effect="non-scaling-stroke" d="
  M 693.75 455.85
  Q 690.84 455.79 689.40 457.02"
/>
<path stroke="#86d5bc" vector-effect="non-scaling-stroke" d="
  M 688.48 456.97
  C 688.81 453.93 697.43 442.52 702.05 435.66
  C 703.28 433.83 703.09 432.18 700.66 431.81
  Q 700.18 431.73 699.81 432.04
  C 694.44 436.51 688.18 441.59 684.66 447.70
  C 682.48 451.48 679.85 456.07 675.61 457.56"
/>
<path stroke="#4a786a" vector-effect="non-scaling-stroke" d="
  M 752.66 254.90
  L 752.56 260.77
  Q 752.55 261.32 752.00 261.38
  Q 748.04 261.79 746.98 261.57
  Q 726.46 257.35 705.54 256.22
  C 703.18 256.09 701.37 254.81 701.07 252.51"
/>
<path stroke="#4a786a" vector-effect="non-scaling-stroke" d="
  M 535.70 251.10
  L 535.52 254.41
  A 2.44 2.44 0.0 0 1 533.20 256.73
  Q 511.80 257.75 490.30 261.52
  Q 487.56 262.00 485.84 261.38
  A 2.71 2.70 -69.4 0 1 484.25 257.86
  L 485.69 254.19"
/>
<path stroke="#ad8b86" vector-effect="non-scaling-stroke" d="
  M 709.63 480.02
  L 709.39 480.82"
/>
<path stroke="#86d5bc" vector-effect="non-scaling-stroke" d="
  M 705.31 484.39
  Q 702.20 485.47 701.44 488.17
  A 1.56 1.55 2.4 0 0 703.24 490.12
  Q 706.86 489.41 710.02 486.76"
/>
<path stroke="#ad8b86" vector-effect="non-scaling-stroke" d="
  M 718.34 483.45
  Q 718.07 483.27 719.14 482.65"
/>
<path stroke="#86d5bc" vector-effect="non-scaling-stroke" d="
  M 720.08 493.65
  Q 719.30 493.63 718.44 494.19
  Q 704.43 503.22 690.63 515.46"
/>
<path stroke="#4fcce6" vector-effect="non-scaling-stroke" d="
  M 690.63 515.46
  L 684.11 521.34
  Q 683.56 521.83 684.30 521.79
  C 688.79 521.51 692.35 521.70 696.47 524.01
  Q 705.98 529.35 715.65 534.40
  A 0.32 0.32 0.0 0 1 715.50 535.00
  L 632.30 535.00
  Q 631.69 535.00 631.37 534.48
  L 624.05 522.41
  A 0.33 0.33 0.0 0 1 624.32 521.91
  L 634.22 521.68
  A 0.72 0.72 0.0 0 0 634.89 521.19
  L 635.78 518.58
  Q 636.00 517.96 635.34 517.96
  L 577.78 518.00
  Q 577.12 518.00 577.12 517.34
  L 577.13 517.02
  Q 577.13 516.50 577.65 516.50
  L 636.10 516.50
  Q 636.64 516.50 636.86 516.01
  L 638.47 512.46"
/>
<path stroke="#86d5bc" vector-effect="non-scaling-stroke" d="
  M 638.47 512.46
  Q 647.14 493.63 659.46 476.51"
/>
<path stroke="#86d5bc" vector-effect="non-scaling-stroke" d="
  M 675.90 478.27
  Q 674.74 479.90 676.50 480.75
  Q 679.18 482.03 681.07 478.20"
/>
<path stroke="#5e8aa6" vector-effect="non-scaling-stroke" d="
  M 711.03 454.77
  L 714.64 452.78"
/>
<path stroke="#4a786a" vector-effect="non-scaling-stroke" d="
  M 740.39 189.70
  Q 734.73 190.15 728.91 188.83"
/>
<path stroke="#4a786a" vector-effect="non-scaling-stroke" d="
  M 507.65 184.72
  L 496.90 186.15"
/>
<path stroke="#3abaaa" vector-effect="non-scaling-stroke" d="
  M 638.47 512.46
  L 548.14 512.60
  Q 547.14 512.60 547.08 513.60
  Q 546.97 515.09 548.07 516.62"
/>
<path stroke="#86d5bc" vector-effect="non-scaling-stroke" d="
  M 548.07 516.62
  Q 547.88 517.59 548.25 518.05"
/>
<path stroke="#3abaaa" vector-effect="non-scaling-stroke" d="
  M 548.25 518.05
  L 549.05 520.70"
/>
<path stroke="#86d5bc" vector-effect="non-scaling-stroke" d="
  M 549.05 520.70
  Q 548.85 521.87 549.67 523.06"
/>
<path stroke="#3abaaa" vector-effect="non-scaling-stroke" d="
  M 549.67 523.06
  L 550.30 524.73"
/>
<path stroke="#82ca95" vector-effect="non-scaling-stroke" d="
  M 550.30 524.73
  Q 549.49 525.93 550.69 527.02"
/>
<path stroke="#3abaaa" vector-effect="non-scaling-stroke" d="
  M 550.69 527.02
  Q 551.17 527.43 550.96 528.13"
/>
<path stroke="#86d5bc" vector-effect="non-scaling-stroke" d="
  M 550.96 528.13
  C 551.69 535.75 542.74 535.78 539.50 530.70
  Q 538.34 528.88 537.46 527.47"
/>
<path stroke="#3abaaa" vector-effect="non-scaling-stroke" d="
  M 537.46 527.47
  L 534.99 522.52"
/>
<path stroke="#86d5bc" vector-effect="non-scaling-stroke" d="
  M 534.99 522.52
  L 533.79 520.04"
/>
<path stroke="#3abaaa" vector-effect="non-scaling-stroke" d="
  M 533.79 520.04
  L 532.28 516.82
  Q 532.06 516.35 531.64 516.66
  Q 519.43 525.76 506.83 534.25
  Q 505.88 534.89 505.45 535.52
  Q 504.44 536.98 505.57 537.58"
/>
<path stroke="#99794b" vector-effect="non-scaling-stroke" d="
  M 505.57 537.58
  Q 505.35 538.75 506.06 539.20
  Q 510.62 542.03 514.79 545.40
  Q 515.33 545.83 515.79 545.94
  Q 516.83 546.19 516.93 545.35"
/>
<path stroke="#3abaaa" vector-effect="non-scaling-stroke" d="
  M 516.93 545.35
  Q 517.65 545.56 518.25 545.56
  Q 613.73 545.75 709.21 545.75
  C 714.67 545.75 722.27 540.55 726.76 537.42
  A 1.09 1.09 0.0 0 0 726.67 535.57
  L 690.63 515.46"
/>
<path stroke="#4a786a" vector-effect="non-scaling-stroke" d="
  M 707.33 485.18
  Q 707.35 486.62 709.47 486.21"
/>
<path stroke="#626f74" vector-effect="non-scaling-stroke" d="
  M 516.93 545.35
  Q 510.99 542.15 505.57 537.58"
/>
<path stroke="#4fcce6" vector-effect="non-scaling-stroke" d="
  M 533.79 520.04
  Q 533.00 521.82 534.99 522.52"
/>
<path stroke="#4fcce6" vector-effect="non-scaling-stroke" d="
  M 537.46 527.47
  Q 531.24 527.97 526.00 530.01
  A 1.24 1.23 -41.7 0 0 525.87 532.25
  C 533.40 536.27 547.98 535.77 555.75 532.56
  A 1.26 1.26 0.0 0 0 556.11 530.45
  Q 554.35 528.88 550.96 528.13"
/>
<path stroke="#4bc0be" vector-effect="non-scaling-stroke" d="
  M 550.69 527.02
  Q 551.01 525.57 550.30 524.73"
/>
<path stroke="#4fcce6" vector-effect="non-scaling-stroke" d="
  M 549.67 523.06
  L 550.18 522.34
  Q 550.44 521.96 550.90 521.97
  Q 559.83 522.15 568.75 521.75
  Q 569.12 521.73 569.23 521.31
  Q 569.35 520.77 568.80 520.77
  L 549.05 520.70"
/>
<path stroke="#4fcce6" vector-effect="non-scaling-stroke" d="
  M 548.25 518.05
  Q 559.76 518.04 571.17 517.84
  Q 571.57 517.83 571.76 517.64
  Q 572.03 517.37 572.01 516.97
  Q 571.99 516.56 571.58 516.56
  L 548.07 516.62"
/>
<path stroke="#ffd580" vector-effect="non-scaling-stroke" d="
  M 883.42 465.35
  L 839.82 476.56
  A 1.66 1.65 -25.1 0 0 838.88 479.13
  L 860.46 509.39
  Q 860.76 509.81 860.76 510.33
  L 860.75 511.16"
/>
<path stroke="#4a786a" vector-effect="non-scaling-stroke" d="
  M 368.83 503.90
  Q 369.30 502.23 367.24 501.04"
/>
<path stroke="#86d5bc" vector-effect="non-scaling-stroke" d="
  M 366.09 498.97
  L 366.14 480.63"
/>
<path stroke="#4fcce6" vector-effect="non-scaling-stroke" d="
  M 354.06 477.03
  L 353.97 601.49
  Q 353.97 602.09 353.37 602.09
  L 167.00 601.88"
/>
<path stroke="#ffd580" vector-effect="non-scaling-stroke" d="
  M 980.84 495.86
  L 975.09 512.09
  A 2.36 2.36 0.0 0 0 976.04 514.86
  L 981.10 518.13"
/>
<path stroke="#ffd580" vector-effect="non-scaling-stroke" d="
  M 987.42 523.52
  Q 977.99 528.39 967.90 531.60
  C 960.53 533.95 958.58 549.56 950.72 550.84"
/>
<path stroke="#ffd580" vector-effect="non-scaling-stroke" d="
  M 947.86 545.27
  Q 948.91 545.16 947.33 543.32
  Q 947.02 542.97 946.90 542.51
  Q 946.19 539.82 944.45 537.70
  Q 944.10 537.28 943.56 537.35
  L 925.99 539.58"
/>
<path stroke="#4fcce6" vector-effect="non-scaling-stroke" d="
  M 1062.78 726.02
  L 1062.75 827.64
  A 0.57 0.57 0.0 0 1 1062.18 828.21
  L 909.80 828.19"
/>
<path stroke="#ffd580" vector-effect="non-scaling-stroke" d="
  M 247.16 853.19
  L 222.70 859.63
  Q 220.86 860.12 220.86 862.02
  L 220.84 871.38"
/>
<path stroke="#ffd580" vector-effect="non-scaling-stroke" d="
  M 220.18 882.97
  Q 215.71 883.44 213.78 882.00
  Q 202.74 873.78 191.53 865.80
  C 187.65 863.04 178.39 864.60 173.67 864.75
  C 167.34 864.96 157.92 866.93 154.42 860.63"
/>
<path stroke="#ffd580" vector-effect="non-scaling-stroke" d="
  M 159.13 852.75
  Q 162.69 848.07 164.86 842.98
  A 1.69 1.68 36.3 0 0 164.59 841.24
  L 146.61 820.29"
/>
<path stroke="#ffd580" vector-effect="non-scaling-stroke" d="
  M 414.76 816.70
  Q 413.36 820.82 413.27 824.26
  Q 413.02 833.16 412.01 842.15
  A 1.25 1.24 -73.7 0 1 410.23 843.13
  Q 397.83 837.03 384.94 831.32
  Q 384.13 830.96 383.34 831.46"
/>
<path stroke="#ffd580" vector-effect="non-scaling-stroke" d="
  M 1249.44 1107.76
  Q 1248.71 1107.15 1248.03 1107.36
  Q 1222.17 1115.13 1196.87 1122.71
  A 1.76 1.76 0.0 0 1 1194.62 1120.80
  L 1201.15 1069.45"
/>
<path stroke="#e03619" vector-effect="non-scaling-stroke" d="
  M 242.58 1091.15
  Q 240.51 1091.68 236.93 1093.16
  Q 196.28 1110.08 155.70 1127.16
  C 153.72 1127.99 152.41 1129.37 150.86 1130.80"
/>
<path stroke="#ffd580" vector-effect="non-scaling-stroke" d="
  M 340.33 2.51
  L 339.69 2.94
  Q 339.30 3.21 339.29 3.69
  L 338.48 42.49
  A 1.45 1.44 -77.9 0 1 336.48 43.79
  Q 316.44 35.39 295.81 26.94
  Q 295.22 26.13 294.07 26.79"
/>
<path stroke="#3abaaa" vector-effect="non-scaling-stroke" d="
  M 784.55 296.75
  Q 784.72 300.06 784.91 303.37
  Q 785.10 306.81 785.75 309.93
  C 787.31 317.42 788.97 327.32 793.04 334.35
  Q 793.42 335.01 793.49 335.82
  Q 793.69 338.16 794.64 337.10"
/>
<path stroke="#a1cbaa" vector-effect="non-scaling-stroke" d="
  M 489.68 172.69
  C 490.81 165.55 493.75 163.45 499.06 159.14
  A 0.57 0.56 33.7 0 0 498.86 158.16
  C 490.38 155.65 485.72 166.34 487.31 172.79
  A 1.21 1.21 0.0 0 0 489.68 172.69"
/>
<path stroke="#a1cbaa" vector-effect="non-scaling-stroke" d="
  M 733.81 161.39
  C 725.22 162.64 720.92 168.78 723.10 176.94
  A 0.75 0.74 65.7 0 0 724.23 177.37
  Q 724.93 176.91 725.24 175.79
  C 726.90 169.78 730.19 166.94 734.58 163.04
  A 0.95 0.95 0.0 0 0 733.81 161.39"
/>
<path stroke="#82ca95" vector-effect="non-scaling-stroke" d="
  M 446.17 335.05
  A 2.35 2.35 0.0 0 0 449.41 333.83
  Q 452.56 326.06 454.97 317.47
  Q 459.78 300.35 472.80 288.91
  C 476.84 285.36 482.70 281.94 487.63 278.60
  C 489.46 277.37 493.19 273.50 488.75 272.20
  C 478.39 269.17 466.83 275.29 459.21 282.23
  C 445.26 294.93 436.86 315.01 444.63 333.42
  Q 445.10 334.52 446.17 335.05"
/>
<path stroke="#4a786a" vector-effect="non-scaling-stroke" d="
  M 466.17 315.27
  C 471.00 383.96 529.34 429.30 595.99 429.20
  C 651.26 429.12 729.68 408.11 755.91 352.68
  C 762.20 339.38 762.83 321.70 752.69 310.30
  C 742.43 298.79 723.96 291.91 709.50 288.94
  Q 681.11 283.10 648.50 282.48
  Q 587.47 281.31 526.44 282.14
  C 512.58 282.33 494.92 284.27 481.39 290.65
  C 470.36 295.84 465.32 303.06 466.17 315.27"
/>
<path stroke="#116b7e" vector-effect="non-scaling-stroke" d="
  M 552.86 316.49
  C 558.82 317.90 563.14 322.28 567.38 325.85
  A 1.08 1.08 0.0 0 0 568.97 324.42
  C 559.50 310.25 541.60 311.07 529.29 320.55
  Q 527.52 321.91 526.69 323.94
  A 0.73 0.73 0.0 0 0 527.85 324.77
  C 535.17 318.42 542.83 314.11 552.86 316.49"
/>
<path stroke="#116b7e" vector-effect="non-scaling-stroke" d="
  M 667.31 317.76
  C 671.94 319.72 674.44 323.31 678.56 325.64
  A 1.16 1.16 0.0 0 0 679.96 323.83
  C 671.82 315.46 661.13 310.84 649.69 315.20
  C 646.77 316.31 638.03 320.57 637.57 323.91
  A 0.94 0.94 0.0 0 0 639.08 324.77
  C 647.86 317.83 655.75 312.88 667.31 317.76"
/>
<path stroke="#116b7e" vector-effect="non-scaling-stroke" d="
  M 540.77 370.00
  C 551.27 394.04 580.48 406.07 604.96 406.68
  C 625.46 407.20 646.20 398.58 660.81 384.27
  C 666.18 379.01 682.90 356.46 659.59 362.18
  Q 649.76 364.59 640.10 367.73
  Q 615.92 375.60 591.10 372.45
  C 577.45 370.71 561.65 365.24 547.38 361.22
  C 540.81 359.36 538.33 364.42 540.77 370.00"
/>
<path stroke="#82ca95" vector-effect="non-scaling-stroke" d="
  M 370.08 485.65
  A 1.76 1.75 -32.4 0 0 372.02 486.08
  C 387.41 479.84 401.23 474.81 418.72 476.30
  Q 427.59 477.06 435.98 477.60
  A 1.80 1.80 0.0 0 0 437.47 474.65
  Q 435.95 472.85 433.35 471.90
  C 414.63 465.04 392.19 465.07 374.94 475.93
  C 372.53 477.45 367.24 482.59 370.08 485.65"
/>
<path stroke="#4fcce6" vector-effect="non-scaling-stroke" d="
  M 166.69 599.94
  L 166.87 600.14
  Q 167.20 600.50 167.68 600.50
  L 352.02 600.50
  A 0.67 0.66 -0.0 0 0 352.69 599.84
  C 352.74 553.91 352.76 511.29 352.53 477.19
  Q 352.53 476.69 351.98 476.70"
/>
<path stroke="#82ca95" vector-effect="non-scaling-stroke" d="
  M 544.56 689.94
  C 521.49 669.21 507.39 640.24 495.07 610.69
  C 486.96 591.21 482.98 578.38 474.39 563.75
  A 1.73 1.72 57.5 0 0 471.92 563.20
  C 469.49 564.89 469.34 572.64 469.63 575.32
  C 473.00 606.10 484.54 635.93 501.03 662.00
  C 514.33 683.03 536.24 705.73 561.28 713.07
  C 563.73 713.79 566.64 713.42 569.19 713.52
  A 0.94 0.94 0.0 0 0 569.82 711.86
  Q 556.83 700.96 544.56 689.94"
/>
<path stroke="#82ca95" vector-effect="non-scaling-stroke" d="
  M 831.67 494.77
  C 833.15 487.62 820.96 481.01 815.81 479.51
  C 800.67 475.13 777.00 474.27 763.66 483.52
  Q 761.90 484.74 763.59 486.06
  Q 764.84 487.04 767.11 486.65
  C 772.68 485.68 778.38 485.29 783.00 485.02
  C 798.39 484.10 810.27 488.00 827.54 494.50
  Q 828.48 494.85 831.01 495.23
  Q 831.56 495.31 831.67 494.77"
/>
<path stroke="#4fcce6" vector-effect="non-scaling-stroke" d="
  M 332.33 494.17
  A 0.91 0.91 0.0 0 0 331.42 493.26
  L 185.18 493.26
  A 0.91 0.91 0.0 0 0 184.27 494.17
  L 184.27 532.09
  A 0.91 0.91 0.0 0 0 185.18 533.00
  L 331.42 533.00
  A 0.91 0.91 0.0 0 0 332.33 532.09
  L 332.33 494.17"
/>
<path stroke="#4fcce6" vector-effect="non-scaling-stroke" d="
  M 332.59 544.57
  A 0.32 0.32 0.0 0 0 332.27 544.25
  L 183.91 544.25
  A 0.32 0.32 0.0 0 0 183.59 544.57
  L 183.59 545.67
  A 0.32 0.32 0.0 0 0 183.91 545.99
  L 332.27 545.99
  A 0.32 0.32 0.0 0 0 332.59 545.67
  L 332.59 544.57"
/>
<path stroke="#4fcce6" vector-effect="non-scaling-stroke" d="
  M 332.45 554.59
  A 0.84 0.84 0.0 0 0 331.61 553.75
  L 184.39 553.75
  A 0.84 0.84 0.0 0 0 183.55 554.59
  L 183.55 554.63
  A 0.84 0.84 0.0 0 0 184.39 555.47
  L 331.61 555.47
  A 0.84 0.84 0.0 0 0 332.45 554.63
  L 332.45 554.59"
/>
<path stroke="#4fcce6" vector-effect="non-scaling-stroke" d="
  M 332.41 563.53
  A 0.27 0.27 0.0 0 0 332.14 563.26
  L 184.04 563.26
  A 0.27 0.27 0.0 0 0 183.77 563.53
  L 183.77 564.73
  A 0.27 0.27 0.0 0 0 184.04 565.00
  L 332.14 565.00
  A 0.27 0.27 0.0 0 0 332.41 564.73
  L 332.41 563.53"
/>
<path stroke="#4fcce6" vector-effect="non-scaling-stroke" d="
  M 274.98 573.65
  A 0.80 0.80 0.0 0 0 274.18 572.85
  L 184.32 572.85
  A 0.80 0.80 0.0 0 0 183.52 573.65
  L 183.52 573.69
  A 0.80 0.80 0.0 0 0 184.32 574.49
  L 274.18 574.49
  A 0.80 0.80 0.0 0 0 274.98 573.69
  L 274.98 573.65"
/>
<path stroke="#4fcce6" vector-effect="non-scaling-stroke" d="
  M 330.76 495.59
  A 0.59 0.59 0.0 0 0 330.17 495.00
  L 186.59 495.00
  A 0.59 0.59 0.0 0 0 186.00 495.59
  L 186.00 531.15
  A 0.59 0.59 0.0 0 0 186.59 531.74
  L 330.17 531.74
  A 0.59 0.59 0.0 0 0 330.76 531.15
  L 330.76 495.59"
/>
<path stroke="#4fcce6" vector-effect="non-scaling-stroke" d="
  M 619.17 522.14
  A 0.35 0.35 0.0 0 0 618.86 521.96
  L 575.08 522.02
  A 0.35 0.35 0.0 0 0 574.79 522.18
  L 567.08 534.46
  A 0.35 0.35 0.0 0 0 567.37 535.00
  L 625.51 535.00
  A 0.35 0.35 0.0 0 0 625.82 534.48
  L 619.17 522.14"
/>
<path stroke="#4fcce6" vector-effect="non-scaling-stroke" d="
  M 909.70 826.55
  L 1060.43 826.50
  Q 1060.95 826.50 1060.95 825.98
  L 1060.97 726.00"
/>
<path stroke="#4fcce6" vector-effect="non-scaling-stroke" d="
  M 1032.00 747.00
  Q 1036.15 747.33 1040.34 747.09
  Q 1040.78 747.07 1040.91 746.65
  L 1040.99 746.40
  A 0.66 0.65 9.2 0 0 1040.37 745.55
  L 919.96 745.49
  A 0.72 0.72 0.0 0 0 919.66 746.87
  Q 920.61 747.31 922.25 747.30
  Q 976.86 747.26 1031.47 747.25
  Q 1031.65 747.25 1031.77 747.10
  Q 1031.87 746.99 1032.00 747.00"
/>
<path stroke="#4fcce6" vector-effect="non-scaling-stroke" d="
  M 1041.01 754.11
  A 0.86 0.86 0.0 0 0 1040.15 753.25
  L 920.11 753.25
  A 0.86 0.86 0.0 0 0 919.25 754.11
  L 919.25 754.15
  A 0.86 0.86 0.0 0 0 920.11 755.01
  L 1040.15 755.01
  A 0.86 0.86 0.0 0 0 1041.01 754.15
  L 1041.01 754.11"
/>
<path stroke="#4fcce6" vector-effect="non-scaling-stroke" d="
  M 1040.98 761.86
  A 0.86 0.86 0.0 0 0 1040.12 761.00
  L 920.12 761.00
  A 0.86 0.86 0.0 0 0 919.26 761.86
  L 919.26 761.88
  A 0.86 0.86 0.0 0 0 920.12 762.74
  L 1040.12 762.74
  A 0.86 0.86 0.0 0 0 1040.98 761.88
  L 1040.98 761.86"
/>
<path stroke="#4fcce6" vector-effect="non-scaling-stroke" d="
  M 994.1500 769.7853
  A 0.74 0.74 0.0 0 0 993.4113 769.0440
  L 920.0514 768.9160
  A 0.74 0.74 0.0 0 0 919.3101 769.6547
  L 919.3100 769.6747
  A 0.74 0.74 0.0 0 0 920.0487 770.4160
  L 993.4086 770.5440
  A 0.74 0.74 0.0 0 0 994.1499 769.8053
  L 994.1500 769.7853"
/>
<path stroke="#4fcce6" vector-effect="non-scaling-stroke" d="
  M 948.1143 780.7250
  A 0.45 0.45 0.0 0 0 947.6651 780.2742
  L 919.9451 780.2258
  A 0.45 0.45 0.0 0 0 919.4943 780.6750
  L 919.4457 808.5150
  A 0.45 0.45 0.0 0 0 919.8949 808.9658
  L 947.6149 809.0142
  A 0.45 0.45 0.0 0 0 948.0657 808.5650
  L 948.1143 780.7250"
/>
<path stroke="#4fcce6" vector-effect="non-scaling-stroke" d="
  M 1039.92 799.81
  A 0.63 0.63 0.0 0 0 1039.29 799.18
  L 957.73 799.18
  A 0.63 0.63 0.0 0 0 957.10 799.81
  L 957.10 800.19
  A 0.63 0.63 0.0 0 0 957.73 800.82
  L 1039.29 800.82
  A 0.63 0.63 0.0 0 0 1039.92 800.19
  L 1039.92 799.81"
/>
<path stroke="#4fcce6" vector-effect="non-scaling-stroke" d="
  M 1008.73 808.11
  A 0.86 0.86 0.0 0 0 1007.87 807.25
  L 957.87 807.25
  A 0.86 0.86 0.0 0 0 957.01 808.11
  L 957.01 808.13
  A 0.86 0.86 0.0 0 0 957.87 808.99
  L 1007.87 808.99
  A 0.86 0.86 0.0 0 0 1008.73 808.13
  L 1008.73 808.11"
/>
<path stroke="#9597d7" vector-effect="non-scaling-stroke" d="
  M 502.19 795.44
  Q 501.83 795.76 502.25 796.52
  A 0.25 0.25 0.0 0 0 502.72 796.41
  Q 502.79 794.68 503.03 792.77
  Q 503.09 792.32 502.58 792.28
  Q 502.26 792.26 502.26 792.58
  Q 502.25 794.04 502.19 795.44"
/>
<path stroke="#4fcce6" vector-effect="non-scaling-stroke" d="
  M 921.38 782.00
  A 0.30 0.30 0.0 0 0 921.08 782.30
  L 920.81 807.20
  A 0.30 0.30 0.0 0 0 921.11 807.50
  L 946.50 807.50
  A 0.30 0.30 0.0 0 0 946.80 807.20
  L 946.46 782.30
  A 0.30 0.30 0.0 0 0 946.16 782.00
  L 921.38 782.00"
/>
</g>
<path fill="#ffdd99" d="
  M 337.80 0.00
  L 339.06 0.00
  L 340.33 2.51
  L 339.69 2.94
  Q 339.30 3.21 339.29 3.69
  L 338.48 42.49
  A 1.45 1.44 -77.9 0 1 336.48 43.79
  Q 316.44 35.39 295.81 26.94
  Q 295.22 26.13 294.07 26.79
  Q 293.07 25.80 293.02 24.68
  A 0.84 0.84 0.0 0 1 293.46 23.91
  L 337.80 0.00
  Z"
/>
<path fill="#ffcc66" d="
  M 340.33 2.51
  Q 342.97 6.72 342.98 9.56
  Q 343.02 30.43 342.99 51.16
  A 1.13 1.13 0.0 0 1 341.79 52.29
  Q 339.84 52.18 337.48 51.20
  Q 318.86 43.48 300.27 35.67
  C 296.48 34.08 295.04 30.49 294.07 26.79
  Q 295.22 26.13 295.81 26.94
  Q 316.44 35.39 336.48 43.79
  A 1.45 1.44 -77.9 0 0 338.48 42.49
  L 339.29 3.69
  Q 339.30 3.21 339.69 2.94
  L 340.33 2.51
  Z"
/>
<path fill="#ff3e1d" d="
  M 1218.13 54.98
  L 1167.22 67.45
  A 1.62 1.62 0.0 0 1 1165.22 65.69
  L 1172.28 4.64
  Q 1174.16 2.61 1176.26 4.74
  Q 1190.25 18.97 1220.76 51.51
  Q 1221.11 51.88 1220.89 52.35
  Q 1219.84 54.60 1218.13 54.98
  Z"
/>
<path fill="#c02e15" d="
  M 1172.28 4.64
  L 1165.22 65.69
  A 1.62 1.62 0.0 0 0 1167.22 67.45
  L 1218.13 54.98
  Q 1213.97 60.99 1209.78 62.11
  Q 1183.88 69.02 1157.84 75.84
  A 1.48 1.48 0.0 0 1 1155.98 74.40
  Q 1155.98 72.80 1156.21 70.77
  Q 1159.35 41.96 1163.20 13.24
  A 1.37 1.32 73.7 0 1 1163.62 12.44
  L 1172.28 4.64
  Z"
/>
<path fill="#ffdd99" d="
  M 546.96 17.37
  Q 548.19 18.95 546.56 20.56
  Q 529.98 37.03 513.39 53.40
  L 501.08 40.94
  Q 523.06 26.66 546.96 17.37
  Z"
/>
<path fill="#ffcc66" d="
  M 546.96 17.37
  Q 550.54 19.13 549.75 21.25
  Q 541.64 43.04 526.22 66.37
  L 513.43 53.72
  Q 512.87 53.07 513.39 53.40
  Q 529.98 37.03 546.56 20.56
  Q 548.19 18.95 546.96 17.37
  Z"
/>
<path fill="#8789ff" d="
  M 501.08 40.94
  L 513.39 53.40
  Q 512.87 53.07 513.43 53.72
  L 498.93 68.06
  Q 499.12 67.61 498.52 67.58
  C 489.42 60.41 478.88 72.78 486.39 80.28
  Q 486.56 80.38 486.50 80.61
  L 479.70 87.35
  C 470.27 80.34 459.54 90.46 466.84 99.75
  L 440.92 125.40
  A 0.67 0.66 -39.8 0 1 439.91 125.31
  Q 439.01 124.04 437.40 124.25
  Q 436.90 124.32 436.53 124.67
  Q 408.44 151.45 382.37 180.19
  Q 382.01 180.58 381.48 180.55
  L 379.46 180.43
  C 376.43 176.45 372.80 174.06 375.74 168.49
  Q 378.86 162.59 383.77 154.75
  L 385.00 153.80
  Q 385.38 153.50 385.61 153.06
  C 389.79 145.07 394.01 138.26 400.62 131.61
  Q 409.46 122.69 418.45 113.95
  Q 419.51 112.93 419.00 112.26
  Q 431.37 100.55 443.23 88.23
  Q 469.50 60.97 501.08 40.94
  Z"
/>
<path fill="#595bd9" d="
  M 513.43 53.72
  L 526.22 66.37
  Q 509.56 92.03 487.53 114.78
  Q 471.48 131.36 455.02 147.52
  Q 453.94 148.58 453.13 149.88
  Q 452.88 150.29 452.91 150.77
  C 454.20 170.35 447.74 185.30 434.49 199.03
  Q 421.42 212.57 407.71 225.45
  Q 406.43 226.65 405.49 226.88
  A 1.96 1.95 3.4 0 1 403.19 224.29
  C 408.26 210.86 412.07 198.15 412.07 183.64
  A 0.64 0.63 -14.4 0 0 411.13 183.09
  Q 403.46 187.30 395.71 191.74
  C 392.80 193.40 386.63 188.48 384.83 186.44
  Q 384.44 185.99 384.03 186.42
  L 382.22 188.32
  Q 380.84 188.61 380.02 189.97
  C 378.31 191.58 374.40 196.48 372.05 193.43
  A 1.38 1.37 -43.7 0 1 372.09 191.70
  L 376.22 186.86
  Q 377.16 186.10 377.55 184.56
  Q 380.72 183.14 379.46 180.43
  L 381.48 180.55
  Q 382.01 180.58 382.37 180.19
  Q 408.44 151.45 436.53 124.67
  Q 436.90 124.32 437.40 124.25
  Q 439.01 124.04 439.91 125.31
  A 0.67 0.66 -39.8 0 0 440.92 125.40
  L 466.84 99.75
  Q 466.86 99.73 466.88 99.72
  C 476.03 106.98 486.20 97.12 479.53 87.28
  Q 479.62 87.31 479.70 87.35
  L 486.50 80.61
  C 496.29 87.28 506.23 76.78 498.93 68.06
  L 513.43 53.72
  Z"
/>
<path fill="#ffdd99" d="
  M 498.52 67.58
  Q 498.44 68.47 497.94 68.94
  Q 492.08 74.40 486.39 80.28
  C 478.88 72.78 489.42 60.41 498.52 67.58
  Z"
/>
<path fill="#ffcc66" d="
  M 498.52 67.58
  Q 499.12 67.61 498.93 68.06
  C 506.23 76.78 496.29 87.28 486.50 80.61
  Q 486.56 80.38 486.39 80.28
  Q 492.08 74.40 497.94 68.94
  Q 498.44 68.47 498.52 67.58
  Z"
/>
<path fill="#ffdd99" d="
  M 479.70 87.35
  Q 479.62 87.31 479.53 87.28
  L 466.88 99.72
  Q 466.86 99.73 466.84 99.75
  C 459.54 90.46 470.27 80.34 479.70 87.35
  Z"
/>
<path fill="#ffcc66" d="
  M 479.53 87.28
  C 486.20 97.12 476.03 106.98 466.88 99.72
  L 479.53 87.28
  Z"
/>
<path fill="#595bd9" d="
  M 419.00 112.26
  Q 419.51 112.93 418.45 113.95
  Q 409.46 122.69 400.62 131.61
  C 394.01 138.26 389.79 145.07 385.61 153.06
  Q 385.38 153.50 385.00 153.80
  L 383.77 154.75
  Q 383.82 154.01 383.24 153.98
  C 368.60 153.26 355.73 157.33 342.19 162.16
  A 2.19 2.19 0.0 0 1 339.27 159.90
  Q 339.35 158.94 340.65 157.65
  Q 351.15 147.21 361.61 136.74
  Q 371.57 126.79 376.48 123.42
  Q 393.64 111.66 415.64 112.90
  C 416.91 112.98 417.81 112.59 419.00 112.26
  Z"
/>
<path fill="#ff3e1d" d="
  M 102.77 201.57
  Q 100.17 201.26 99.54 199.19
  Q 88.55 163.15 77.44 126.78
  L 79.75 124.94
  Q 80.18 124.60 80.66 124.86
  L 146.81 160.35
  A 2.75 2.75 0.0 0 1 147.26 164.90
  L 102.77 201.57
  Z"
/>
<path fill="#c02e15" d="
  M 77.44 126.78
  Q 88.55 163.15 99.54 199.19
  Q 100.17 201.26 102.77 201.57
  L 92.84 209.40
  A 2.29 2.29 0.0 0 1 89.24 208.27
  L 66.99 135.99
  Q 66.84 135.52 67.22 135.20
  L 77.44 126.78
  Z"
/>
<path fill="#03b0d4" fill-opacity="0.996" d="
  M 795.99 346.38
  C 789.76 332.77 785.31 318.64 783.43 303.72
  Q 782.57 296.85 781.57 290.22
  C 782.68 258.46 790.27 230.47 809.55 205.28
  C 854.74 146.25 935.98 134.21 996.24 176.99
  C 1024.38 196.97 1044.38 228.51 1050.26 262.55
  Q 1059.28 314.77 1030.70 360.17
  Q 1023.36 371.83 1013.85 380.68
  Q 1012.93 381.53 1014.18 381.62
  C 1065.16 385.38 1116.63 413.58 1115.19 472.33
  C 1114.42 503.77 1094.72 536.30 1072.32 557.31
  Q 1044.56 583.35 1019.67 601.16
  C 963.63 641.27 900.56 671.75 835.27 693.43
  C 799.54 705.29 763.59 714.79 726.75 720.76
  C 713.54 722.91 700.15 725.56 688.46 727.29
  Q 640.81 734.37 627.07 735.65
  C 608.27 737.39 589.43 740.06 570.86 741.85
  Q 523.71 746.37 506.82 746.88
  C 471.55 747.93 437.26 750.45 402.51 749.56
  Q 382.75 749.06 363.00 748.49
  Q 326.25 747.43 280.51 741.23
  C 221.02 733.15 162.92 718.45 111.99 687.99
  C 68.43 661.95 33.12 618.27 32.96 564.84
  C 32.94 558.88 32.84 552.73 33.29 547.04
  Q 37.47 494.55 70.47 453.96
  C 91.17 428.49 117.90 407.21 144.93 388.43
  C 201.84 348.89 260.07 311.06 306.64 258.89
  Q 308.13 257.22 309.57 256.13
  A 0.56 0.55 2.3 0 1 310.32 256.94
  C 282.78 287.51 251.68 314.91 218.73 338.72
  C 187.94 360.96 149.46 385.71 116.35 411.86
  Q 94.75 428.91 76.51 449.49
  Q 37.76 493.20 34.43 552.93
  C 29.45 642.23 105.59 693.25 180.21 717.51
  C 227.06 732.73 276.54 740.79 326.25 744.74
  Q 376.17 748.71 423.00 747.66
  C 426.91 747.57 431.36 748.25 435.33 748.13
  Q 456.67 747.49 478.00 746.64
  C 519.84 744.98 561.05 740.35 603.31 736.49
  C 609.69 735.91 617.29 734.66 625.00 733.76
  Q 654.46 730.31 698.48 723.56
  Q 699.36 723.42 699.75 723.00
  Q 700.08 722.64 700.19 722.09
  Q 700.29 721.58 700.77 721.40
  Q 703.16 720.49 704.15 722.42
  Q 704.40 722.91 704.94 722.82
  Q 729.57 718.93 743.17 716.39
  C 806.06 704.61 867.96 682.69 925.51 654.96
  C 978.46 629.44 1028.28 597.04 1071.04 556.54
  C 1108.16 521.39 1133.33 460.93 1093.63 416.88
  C 1075.07 396.30 1045.43 385.62 1017.03 383.42
  C 1011.50 382.99 1012.51 382.54 1008.54 386.17
  C 963.53 427.28 898.31 433.46 845.95 401.29
  Q 845.43 400.97 844.14 400.96
  Q 843.34 400.95 842.37 401.24
  Q 821.08 407.77 799.81 415.62
  A 0.87 0.86 71.4 0 1 798.69 415.06
  Q 798.66 414.96 798.88 414.66
  Q 799.01 414.48 799.24 414.39
  Q 820.64 406.08 842.52 399.67
  A 0.39 0.39 0.0 0 0 842.59 398.94
  Q 839.55 397.42 836.75 395.26
  Q 810.99 375.42 795.99 346.38
  Z
  M 784.55 296.75
  Q 784.72 300.06 784.91 303.37
  Q 785.10 306.81 785.75 309.93
  C 787.31 317.42 788.97 327.32 793.04 334.35
  Q 793.42 335.01 793.49 335.82
  Q 793.69 338.16 794.64 337.10
  Q 796.03 343.56 798.82 348.68
  Q 815.31 378.99 844.44 398.73
  Q 844.84 399.00 845.30 398.86
  Q 892.03 384.50 940.69 380.51
  C 948.09 379.90 957.57 379.91 966.00 379.25
  Q 972.14 378.78 986.65 379.92
  C 988.81 380.09 990.22 379.84 991.79 378.54
  Q 1024.16 351.72 1033.13 311.06
  C 1034.69 303.99 1035.22 295.38 1036.27 287.54
  A 0.28 0.28 0.0 0 1 1036.65 287.32
  Q 1036.79 287.38 1036.89 287.50
  Q 1037.04 287.67 1037.04 288.04
  C 1037.03 323.93 1020.24 356.71 993.12 379.35
  Q 992.02 380.27 993.45 380.12
  L 995.13 379.95
  A 0.68 0.46 37.3 0 1 995.32 379.96
  Q 1002.99 381.15 1010.74 380.84
  Q 1011.98 380.79 1012.52 380.25
  C 1044.23 348.39 1057.73 301.67 1047.80 257.75
  C 1029.63 177.29 943.82 131.13 866.72 163.01
  C 814.11 184.77 778.60 239.09 784.55 296.75
  Z
  M 917.23 406.01
  A 0.31 0.31 0.0 0 1 917.23 405.39
  C 943.15 404.23 966.69 397.38 987.58 381.68
  A 0.50 0.50 0.0 0 0 987.33 380.79
  C 985.15 380.59 982.83 381.03 980.89 380.98
  C 935.41 379.82 891.18 386.91 847.62 399.61
  Q 845.89 400.12 847.54 400.85
  C 850.97 402.38 854.59 404.74 857.60 406.22
  C 906.96 430.43 963.73 422.97 1005.35 387.07
  Q 1007.28 385.41 1008.58 384.05
  Q 1009.52 383.06 1008.18 382.79
  Q 1002.10 381.57 996.07 381.93
  C 994.36 382.03 991.19 381.00 989.79 382.02
  C 968.87 397.41 943.50 407.22 917.23 406.01
  Z"
/>
<path fill="#71c380" d="
  M 507.65 184.72
  L 496.90 186.15
  Q 492.94 184.27 490.83 182.70
  C 478.55 173.51 483.47 156.94 497.58 153.83
  C 515.13 149.96 527.82 175.96 507.65 184.72
  Z
  M 489.68 172.69
  C 490.81 165.55 493.75 163.45 499.06 159.14
  A 0.57 0.56 33.7 0 0 498.86 158.16
  C 490.38 155.65 485.72 166.34 487.31 172.79
  A 1.21 1.21 0.0 0 0 489.68 172.69
  Z"
/>
<path fill="#d1d2d4" d="
  M 499.06 159.14
  C 493.75 163.45 490.81 165.55 489.68 172.69
  A 1.21 1.21 0.0 0 1 487.31 172.79
  C 485.72 166.34 490.38 155.65 498.86 158.16
  A 0.57 0.56 33.7 0 1 499.06 159.14
  Z"
/>
<path fill="#71c380" d="
  M 740.39 189.70
  Q 734.73 190.15 728.91 188.83
  Q 724.47 184.75 723.48 183.55
  C 712.66 170.49 727.51 153.28 742.94 158.74
  C 759.69 164.67 756.67 185.40 740.39 189.70
  Z
  M 733.81 161.39
  C 725.22 162.64 720.92 168.78 723.10 176.94
  A 0.75 0.74 65.7 0 0 724.23 177.37
  Q 724.93 176.91 725.24 175.79
  C 726.90 169.78 730.19 166.94 734.58 163.04
  A 0.95 0.95 0.0 0 0 733.81 161.39
  Z"
/>
<path fill="#d1d2d4" d="
  M 723.10 176.94
  C 720.92 168.78 725.22 162.64 733.81 161.39
  A 0.95 0.95 0.0 0 1 734.58 163.04
  C 730.19 166.94 726.90 169.78 725.24 175.79
  Q 724.93 176.91 724.23 177.37
  A 0.75 0.74 65.7 0 1 723.10 176.94
  Z"
/>
<path fill="#03b0d4" fill-opacity="0.996" d="
  M 832.30 202.55
  C 865.49 169.19 913.22 157.81 959.01 174.19
  A 0.41 0.41 0.0 0 1 958.90 174.98
  Q 957.28 175.09 955.49 174.52
  C 915.12 161.77 873.12 169.14 841.03 196.39
  C 793.84 236.47 785.32 304.33 820.71 354.98
  C 822.82 357.99 826.48 362.15 828.97 366.11
  Q 829.21 366.49 828.81 366.71
  Q 828.55 366.85 828.36 366.64
  C 785.80 319.32 787.38 247.70 832.30 202.55
  Z"
/>
<path fill="#03b0d4" fill-opacity="0.996" d="
  M 969.24 339.76
  C 954.00 324.73 938.98 310.00 923.70 294.27
  A 0.69 0.69 0.0 0 0 922.90 294.13
  C 908.39 301.41 902.33 280.86 915.48 277.68
  A 1.94 1.93 83.3 0 0 916.95 275.81
  L 917.12 183.12
  Q 917.12 182.87 917.36 182.95
  Q 917.50 183.00 917.65 183.05
  Q 917.73 183.07 917.73 183.15
  Q 918.18 226.83 917.95 270.50
  Q 917.94 272.63 918.36 276.82
  Q 918.41 277.31 918.89 277.44
  C 927.49 279.75 926.47 286.07 924.99 292.87
  Q 924.88 293.39 925.25 293.77
  L 972.75 341.14
  A 0.52 0.52 0.0 0 1 972.75 341.88
  L 972.46 342.16
  Q 972.36 342.27 972.23 342.18
  Q 970.62 341.12 969.24 339.76
  Z"
/>
<path fill="#ffcc66" d="
  M 377.55 184.56
  Q 377.16 186.10 376.22 186.86
  Q 372.05 185.49 368.04 187.30
  C 355.16 193.12 347.86 207.17 345.21 220.53
  A 0.68 0.68 0.0 0 0 346.04 221.33
  C 358.97 218.27 382.85 207.25 380.02 189.97
  Q 380.84 188.61 382.22 188.32
  C 381.56 194.02 382.76 197.03 379.33 203.13
  C 368.23 222.91 345.91 236.41 324.57 242.00
  A 0.67 0.67 0.0 0 1 323.76 241.16
  C 329.74 221.67 340.02 203.56 356.22 190.98
  C 361.47 186.90 370.70 182.10 377.55 184.56
  Z"
/>
<path fill="#222d54" d="
  M 507.65 184.72
  L 514.40 240.75
  A 1.29 1.28 -2.3 0 0 515.63 241.88
  Q 527.54 242.26 535.70 251.10
  L 535.52 254.41
  A 2.44 2.44 0.0 0 1 533.20 256.73
  Q 511.80 257.75 490.30 261.52
  Q 487.56 262.00 485.84 261.38
  A 2.71 2.70 -69.4 0 1 484.25 257.86
  L 485.69 254.19
  C 490.27 249.28 493.60 246.26 500.04 243.78
  Q 500.55 243.58 500.51 243.04
  L 496.90 186.15
  L 507.65 184.72
  Z"
/>
<path fill="#ffdd99" d="
  M 376.22 186.86
  L 372.09 191.70
  A 1.38 1.37 -43.7 0 0 372.05 193.43
  C 374.40 196.48 378.31 191.58 380.02 189.97
  C 382.85 207.25 358.97 218.27 346.04 221.33
  A 0.68 0.68 0.0 0 1 345.21 220.53
  C 347.86 207.17 355.16 193.12 368.04 187.30
  Q 372.05 185.49 376.22 186.86
  Z"
/>
<path fill="#222d54" d="
  M 728.91 188.83
  Q 734.73 190.15 740.39 189.70
  Q 739.76 192.17 739.63 194.57
  Q 738.34 218.66 737.06 242.58
  A 1.26 1.25 -75.8 0 0 737.76 243.77
  C 743.95 246.80 747.79 250.16 752.66 254.90
  L 752.56 260.77
  Q 752.55 261.32 752.00 261.38
  Q 748.04 261.79 746.98 261.57
  Q 726.46 257.35 705.54 256.22
  C 703.18 256.09 701.37 254.81 701.07 252.51
  C 704.81 245.17 714.27 242.39 721.75 241.84
  A 1.61 1.61 0.0 0 0 723.23 240.42
  L 728.91 188.83
  Z"
/>
<path fill="#71c380" d="
  M 535.70 251.10
  Q 537.87 251.50 540.94 251.56
  Q 623.78 253.18 695.75 253.01
  Q 697.37 253.01 701.07 252.51
  C 701.37 254.81 703.18 256.09 705.54 256.22
  Q 726.46 257.35 746.98 261.57
  Q 748.04 261.79 752.00 261.38
  Q 752.55 261.32 752.56 260.77
  L 752.66 254.90
  C 756.87 256.55 761.37 258.05 764.76 260.63
  C 774.15 267.79 778.71 279.44 781.57 290.22
  Q 782.57 296.85 783.43 303.72
  C 785.31 318.64 789.76 332.77 795.99 346.38
  Q 798.69 364.33 796.54 382.00
  Q 794.07 402.27 782.33 418.89
  Q 746.33 431.80 714.64 452.78
  L 710.75 453.79
  C 707.41 454.31 704.32 455.47 701.02 455.58
  Q 697.37 455.70 693.75 455.85
  Q 690.84 455.79 689.40 457.02
  L 688.48 456.97
  C 688.81 453.93 697.43 442.52 702.05 435.66
  C 703.28 433.83 703.09 432.18 700.66 431.81
  Q 700.18 431.73 699.81 432.04
  C 694.44 436.51 688.18 441.59 684.66 447.70
  C 682.48 451.48 679.85 456.07 675.61 457.56
  Q 672.37 458.31 670.31 458.38
  C 619.69 459.98 560.88 459.25 506.84 452.05
  C 487.34 449.45 465.86 442.99 450.95 429.65
  C 415.19 397.67 430.88 329.45 442.35 290.32
  C 446.91 274.76 456.13 263.00 471.83 257.86
  Q 475.95 256.51 485.69 254.19
  L 484.25 257.86
  A 2.71 2.70 -69.4 0 0 485.84 261.38
  Q 487.56 262.00 490.30 261.52
  Q 511.80 257.75 533.20 256.73
  A 2.44 2.44 0.0 0 0 535.52 254.41
  L 535.70 251.10
  Z
  M 446.17 335.05
  A 2.35 2.35 0.0 0 0 449.41 333.83
  Q 452.56 326.06 454.97 317.47
  Q 459.78 300.35 472.80 288.91
  C 476.84 285.36 482.70 281.94 487.63 278.60
  C 489.46 277.37 493.19 273.50 488.75 272.20
  C 478.39 269.17 466.83 275.29 459.21 282.23
  C 445.26 294.93 436.86 315.01 444.63 333.42
  Q 445.10 334.52 446.17 335.05
  Z
  M 466.17 315.27
  C 471.00 383.96 529.34 429.30 595.99 429.20
  C 651.26 429.12 729.68 408.11 755.91 352.68
  C 762.20 339.38 762.83 321.70 752.69 310.30
  C 742.43 298.79 723.96 291.91 709.50 288.94
  Q 681.11 283.10 648.50 282.48
  Q 587.47 281.31 526.44 282.14
  C 512.58 282.33 494.92 284.27 481.39 290.65
  C 470.36 295.84 465.32 303.06 466.17 315.27
  Z"
/>
<path fill="#93d0a9" d="
  M 446.17 335.05
  Q 445.10 334.52 444.63 333.42
  C 436.86 315.01 445.26 294.93 459.21 282.23
  C 466.83 275.29 478.39 269.17 488.75 272.20
  C 493.19 273.50 489.46 277.37 487.63 278.60
  C 482.70 281.94 476.84 285.36 472.80 288.91
  Q 459.78 300.35 454.97 317.47
  Q 452.56 326.06 449.41 333.83
  A 2.35 2.35 0.0 0 1 446.17 335.05
  Z"
/>
<path fill="#222d54" d="
  M 595.99 429.20
  C 529.34 429.30 471.00 383.96 466.17 315.27
  C 465.32 303.06 470.36 295.84 481.39 290.65
  C 494.92 284.27 512.58 282.33 526.44 282.14
  Q 587.47 281.31 648.50 282.48
  Q 681.11 283.10 709.50 288.94
  C 723.96 291.91 742.43 298.79 752.69 310.30
  C 762.83 321.70 762.20 339.38 755.91 352.68
  C 729.68 408.11 651.26 429.12 595.99 429.20
  Z
  M 552.86 316.49
  C 558.82 317.90 563.14 322.28 567.38 325.85
  A 1.08 1.08 0.0 0 0 568.97 324.42
  C 559.50 310.25 541.60 311.07 529.29 320.55
  Q 527.52 321.91 526.69 323.94
  A 0.73 0.73 0.0 0 0 527.85 324.77
  C 535.17 318.42 542.83 314.11 552.86 316.49
  Z
  M 667.31 317.76
  C 671.94 319.72 674.44 323.31 678.56 325.64
  A 1.16 1.16 0.0 0 0 679.96 323.83
  C 671.82 315.46 661.13 310.84 649.69 315.20
  C 646.77 316.31 638.03 320.57 637.57 323.91
  A 0.94 0.94 0.0 0 0 639.08 324.77
  C 647.86 317.83 655.75 312.88 667.31 317.76
  Z
  M 540.77 370.00
  C 551.27 394.04 580.48 406.07 604.96 406.68
  C 625.46 407.20 646.20 398.58 660.81 384.27
  C 666.18 379.01 682.90 356.46 659.59 362.18
  Q 649.76 364.59 640.10 367.73
  Q 615.92 375.60 591.10 372.45
  C 577.45 370.71 561.65 365.24 547.38 361.22
  C 540.81 359.36 538.33 364.42 540.77 370.00
  Z"
/>
<path fill="#71c380" d="
  M 784.55 296.75
  Q 790.49 316.65 794.64 337.10
  Q 793.69 338.16 793.49 335.82
  Q 793.42 335.01 793.04 334.35
  C 788.97 327.32 787.31 317.42 785.75 309.93
  Q 785.10 306.81 784.91 303.37
  Q 784.72 300.06 784.55 296.75
  Z"
/>
<path fill="#00a9a7" d="
  M 552.86 316.49
  C 542.83 314.11 535.17 318.42 527.85 324.77
  A 0.73 0.73 0.0 0 1 526.69 323.94
  Q 527.52 321.91 529.29 320.55
  C 541.60 311.07 559.50 310.25 568.97 324.42
  A 1.08 1.08 0.0 0 1 567.38 325.85
  C 563.14 322.28 558.82 317.90 552.86 316.49
  Z"
/>
<path fill="#00a9a7" d="
  M 667.31 317.76
  C 655.75 312.88 647.86 317.83 639.08 324.77
  A 0.94 0.94 0.0 0 1 637.57 323.91
  C 638.03 320.57 646.77 316.31 649.69 315.20
  C 661.13 310.84 671.82 315.46 679.96 323.83
  A 1.16 1.16 0.0 0 1 678.56 325.64
  C 674.44 323.31 671.94 319.72 667.31 317.76
  Z"
/>
<path fill="#00a9a7" d="
  M 604.96 406.68
  C 580.48 406.07 551.27 394.04 540.77 370.00
  C 538.33 364.42 540.81 359.36 547.38 361.22
  C 561.65 365.24 577.45 370.71 591.10 372.45
  Q 615.92 375.60 640.10 367.73
  Q 649.76 364.59 659.59 362.18
  C 682.90 356.46 666.18 379.01 660.81 384.27
  C 646.20 398.58 625.46 407.20 604.96 406.68
  Z"
/>
<path fill="#9ae7f7" d="
  M 709.63 480.02
  L 709.39 480.82
  Q 707.18 481.75 705.31 484.39
  Q 702.20 485.47 701.44 488.17
  A 1.56 1.55 2.4 0 0 703.24 490.12
  Q 706.86 489.41 710.02 486.76
  L 718.34 483.45
  Q 718.07 483.27 719.14 482.65
  Q 720.61 482.47 722.45 481.71
  Q 737.56 475.49 753.47 471.67
  A 0.89 0.88 -28.3 0 1 754.32 471.92
  C 756.23 473.91 755.16 475.58 752.95 476.49
  Q 735.96 483.50 720.08 493.65
  Q 719.30 493.63 718.44 494.19
  Q 704.43 503.22 690.63 515.46
  L 684.11 521.34
  Q 683.56 521.83 684.30 521.79
  C 688.79 521.51 692.35 521.70 696.47 524.01
  Q 705.98 529.35 715.65 534.40
  A 0.32 0.32 0.0 0 1 715.50 535.00
  L 632.30 535.00
  Q 631.69 535.00 631.37 534.48
  L 624.05 522.41
  A 0.33 0.33 0.0 0 1 624.32 521.91
  L 634.22 521.68
  A 0.72 0.72 0.0 0 0 634.89 521.19
  L 635.78 518.58
  Q 636.00 517.96 635.34 517.96
  L 577.78 518.00
  Q 577.12 518.00 577.12 517.34
  L 577.13 517.02
  Q 577.13 516.50 577.65 516.50
  L 636.10 516.50
  Q 636.64 516.50 636.86 516.01
  L 638.47 512.46
  Q 647.14 493.63 659.46 476.51
  Q 661.10 475.79 661.61 474.83
  Q 665.26 467.94 670.15 461.85
  C 671.64 459.99 673.74 459.23 675.61 457.56
  C 679.85 456.07 682.48 451.48 684.66 447.70
  C 688.18 441.59 694.44 436.51 699.81 432.04
  Q 700.18 431.73 700.66 431.81
  C 703.09 432.18 703.28 433.83 702.05 435.66
  C 697.43 442.52 688.81 453.93 688.48 456.97
  L 675.90 478.27
  Q 674.74 479.90 676.50 480.75
  Q 679.18 482.03 681.07 478.20
  L 688.83 471.82
  A 0.40 0.37 -20.0 0 0 688.97 471.55
  Q 688.98 471.41 689.01 471.29
  Q 689.06 471.13 689.26 470.98
  Q 700.09 462.76 711.03 454.77
  L 714.64 452.78
  Q 746.33 431.80 782.33 418.89
  Q 785.51 416.91 788.13 418.54
  A 1.88 1.87 45.1 0 1 788.13 421.72
  Q 763.93 436.71 741.24 453.71
  C 731.57 460.95 721.25 469.90 711.30 478.05
  Q 710.29 478.88 709.63 480.02
  Z"
/>
<path fill="#222d54" d="
  M 714.64 452.78
  L 711.03 454.77
  Q 711.04 454.14 710.75 453.79
  L 714.64 452.78
  Z"
/>
<path fill="#222d54" d="
  M 693.75 455.85
  Q 694.79 456.14 693.39 456.31
  A 0.16 0.07 -29.7 0 0 693.24 456.51
  Q 693.42 456.50 693.58 456.50
  A 0.14 0.14 0.0 0 1 693.67 456.75
  Q 693.09 457.24 692.53 456.77
  A 0.63 0.62 -38.2 0 0 691.83 456.69
  Q 690.62 457.36 689.40 457.02
  Q 690.84 455.79 693.75 455.85
  Z"
/>
<path fill="#03b0d4" fill-opacity="0.996" d="
  M 974.90 655.56
  C 1025.98 630.31 1072.98 594.88 1108.07 550.32
  Q 1130.93 521.29 1135.28 484.82
  C 1136.13 477.75 1136.07 469.61 1136.36 461.86
  A 0.93 0.93 0.0 0 1 1137.06 461.00
  Q 1138.15 460.73 1138.16 462.32
  Q 1138.33 483.22 1133.23 503.50
  C 1128.16 523.71 1117.61 541.26 1104.42 557.17
  C 1070.29 598.34 1025.92 631.94 978.23 655.50
  Q 976.69 656.26 975.01 656.11
  Q 973.97 656.02 974.90 655.56
  Z"
/>
<path fill="#ffcc66" d="
  M 883.42 465.35
  L 839.82 476.56
  A 1.66 1.65 -25.1 0 0 838.88 479.13
  L 860.46 509.39
  Q 860.76 509.81 860.76 510.33
  L 860.75 511.16
  C 857.77 509.50 854.73 508.48 852.63 505.60
  Q 842.13 491.21 831.65 476.85
  Q 830.34 475.05 829.94 473.58
  A 0.80 0.80 0.0 0 1 830.38 472.64
  Q 832.61 471.64 834.68 471.15
  Q 854.79 466.41 874.79 461.25
  Q 875.29 461.12 875.75 461.36
  L 883.42 465.35
  Z"
/>
<path fill="#71c380" d="
  M 368.83 503.90
  Q 369.30 502.23 367.24 501.04
  Q 367.13 498.75 366.09 498.97
  L 366.14 480.63
  Q 370.55 471.73 379.98 467.98
  C 401.94 459.24 431.56 463.72 452.13 473.54
  C 475.20 484.55 469.27 504.27 460.80 522.80
  C 457.95 529.03 454.72 534.11 448.67 537.31
  Q 442.59 540.52 436.24 539.85
  C 411.63 537.27 383.09 525.34 368.83 503.90
  Z
  M 370.08 485.65
  A 1.76 1.75 -32.4 0 0 372.02 486.08
  C 387.41 479.84 401.23 474.81 418.72 476.30
  Q 427.59 477.06 435.98 477.60
  A 1.80 1.80 0.0 0 0 437.47 474.65
  Q 435.95 472.85 433.35 471.90
  C 414.63 465.04 392.19 465.07 374.94 475.93
  C 372.53 477.45 367.24 482.59 370.08 485.65
  Z"
/>
<path fill="#03b0d4" fill-opacity="0.996" d="
  M 354.06 477.03
  L 353.97 601.49
  Q 353.97 602.09 353.37 602.09
  L 167.00 601.88
  L 154.74 601.71
  A 0.75 0.75 0.0 0 1 154.00 600.96
  L 154.01 465.99
  Q 154.01 464.00 156.01 464.00
  L 353.47 464.00
  A 0.55 0.55 0.0 0 1 354.02 464.55
  L 354.06 477.03
  Z
  M 166.69 599.94
  L 166.87 600.14
  Q 167.20 600.50 167.68 600.50
  L 352.02 600.50
  A 0.67 0.66 -0.0 0 0 352.69 599.84
  C 352.74 553.91 352.76 511.29 352.53 477.19
  Q 352.53 476.69 351.98 476.70
  L 352.65 475.95
  A 1.33 1.30 -24.1 0 0 353.00 475.06
  L 353.00 466.64
  A 0.62 0.61 90.0 0 0 352.39 466.02
  L 156.20 465.95
  A 1.36 1.35 -0.0 0 0 154.84 467.30
  L 154.88 599.19
  A 0.75 0.74 -0.0 0 0 155.63 599.93
  L 166.69 599.94
  Z"
/>
<path fill="#ffdd99" d="
  M 883.42 465.35
  Q 884.07 465.53 884.75 466.10
  A 0.71 0.71 0.0 0 1 884.93 466.94
  Q 874.60 489.07 864.66 510.39
  C 863.70 512.45 862.41 512.41 860.75 511.16
  L 860.76 510.33
  Q 860.76 509.81 860.46 509.39
  L 838.88 479.13
  A 1.66 1.65 -25.1 0 1 839.82 476.56
  L 883.42 465.35
  Z"
/>
<path fill="#93d0a9" d="
  M 370.08 485.65
  C 367.24 482.59 372.53 477.45 374.94 475.93
  C 392.19 465.07 414.63 465.04 433.35 471.90
  Q 435.95 472.85 437.47 474.65
  A 1.80 1.80 0.0 0 1 435.98 477.60
  Q 427.59 477.06 418.72 476.30
  C 401.23 474.81 387.41 479.84 372.02 486.08
  A 1.76 1.75 -32.4 0 1 370.08 485.65
  Z"
/>
<path fill="#71c380" d="
  M 659.46 476.51
  Q 647.14 493.63 638.47 512.46
  L 548.14 512.60
  Q 547.14 512.60 547.08 513.60
  Q 546.97 515.09 548.07 516.62
  Q 547.88 517.59 548.25 518.05
  L 549.05 520.70
  Q 548.85 521.87 549.67 523.06
  L 550.30 524.73
  Q 549.49 525.93 550.69 527.02
  Q 551.17 527.43 550.96 528.13
  C 551.69 535.75 542.74 535.78 539.50 530.70
  Q 538.34 528.88 537.46 527.47
  L 534.99 522.52
  L 533.79 520.04
  L 532.28 516.82
  Q 532.06 516.35 531.64 516.66
  Q 519.43 525.76 506.83 534.25
  Q 505.88 534.89 505.45 535.52
  Q 504.44 536.98 505.57 537.58
  Q 505.35 538.75 506.06 539.20
  Q 510.62 542.03 514.79 545.40
  Q 515.33 545.83 515.79 545.94
  Q 516.83 546.19 516.93 545.35
  Q 517.65 545.56 518.25 545.56
  Q 613.73 545.75 709.21 545.75
  C 714.67 545.75 722.27 540.55 726.76 537.42
  A 1.09 1.09 0.0 0 0 726.67 535.57
  L 690.63 515.46
  Q 704.43 503.22 718.44 494.19
  Q 719.30 493.63 720.08 493.65
  Q 722.52 495.51 723.74 499.05
  Q 732.24 523.81 737.04 547.79
  C 737.74 551.28 737.75 555.84 737.32 559.40
  C 728.57 630.71 683.91 726.97 597.19 724.28
  C 516.60 721.78 470.33 640.13 460.50 569.73
  C 458.26 553.67 464.89 541.29 469.66 526.39
  Q 474.20 512.21 475.75 504.75
  Q 478.50 491.49 480.46 485.74
  C 485.53 470.89 517.99 470.46 530.25 470.96
  C 573.28 472.71 616.48 473.91 659.46 476.51
  Z
  M 544.56 689.94
  C 521.49 669.21 507.39 640.24 495.07 610.69
  C 486.96 591.21 482.98 578.38 474.39 563.75
  A 1.73 1.72 57.5 0 0 471.92 563.20
  C 469.49 564.89 469.34 572.64 469.63 575.32
  C 473.00 606.10 484.54 635.93 501.03 662.00
  C 514.33 683.03 536.24 705.73 561.28 713.07
  C 563.73 713.79 566.64 713.42 569.19 713.52
  A 0.94 0.94 0.0 0 0 569.82 711.86
  Q 556.83 700.96 544.56 689.94
  Z"
/>
<path fill="#71c380" d="
  M 832.47 482.52
  C 846.17 495.22 838.00 513.01 826.43 523.18
  Q 802.47 544.24 770.76 548.85
  C 753.76 551.31 745.73 542.27 739.54 527.28
  C 734.94 516.17 730.45 500.24 738.43 490.18
  Q 742.10 485.56 750.86 481.49
  C 772.86 471.28 813.14 464.59 832.47 482.52
  Z
  M 831.67 494.77
  C 833.15 487.62 820.96 481.01 815.81 479.51
  C 800.67 475.13 777.00 474.27 763.66 483.52
  Q 761.90 484.74 763.59 486.06
  Q 764.84 487.04 767.11 486.65
  C 772.68 485.68 778.38 485.29 783.00 485.02
  C 798.39 484.10 810.27 488.00 827.54 494.50
  Q 828.48 494.85 831.01 495.23
  Q 831.56 495.31 831.67 494.77
  Z"
/>
<path fill="#93d0a9" d="
  M 815.81 479.51
  C 820.96 481.01 833.15 487.62 831.67 494.77
  Q 831.56 495.31 831.01 495.23
  Q 828.48 494.85 827.54 494.50
  C 810.27 488.00 798.39 484.10 783.00 485.02
  C 778.38 485.29 772.68 485.68 767.11 486.65
  Q 764.84 487.04 763.59 486.06
  Q 761.90 484.74 763.66 483.52
  C 777.00 474.27 800.67 475.13 815.81 479.51
  Z"
/>
<path fill="#9ae7f7" d="
  M 351.98 476.70
  Q 352.53 476.69 352.53 477.19
  C 352.76 511.29 352.74 553.91 352.69 599.84
  A 0.67 0.66 0.0 0 1 352.02 600.50
  L 167.68 600.50
  Q 167.20 600.50 166.87 600.14
  L 166.69 599.94
  Q 166.74 599.85 166.86 599.76
  Q 167.00 599.67 167.00 599.51
  L 167.00 477.98
  A 0.99 0.99 0.0 0 1 167.99 476.99
  L 351.98 476.70
  Z
  M 332.33 494.17
  A 0.91 0.91 0.0 0 0 331.42 493.26
  L 185.18 493.26
  A 0.91 0.91 0.0 0 0 184.27 494.17
  L 184.27 532.09
  A 0.91 0.91 0.0 0 0 185.18 533.00
  L 331.42 533.00
  A 0.91 0.91 0.0 0 0 332.33 532.09
  L 332.33 494.17
  Z
  M 332.59 544.57
  A 0.32 0.32 0.0 0 0 332.27 544.25
  L 183.91 544.25
  A 0.32 0.32 0.0 0 0 183.59 544.57
  L 183.59 545.67
  A 0.32 0.32 0.0 0 0 183.91 545.99
  L 332.27 545.99
  A 0.32 0.32 0.0 0 0 332.59 545.67
  L 332.59 544.57
  Z
  M 332.45 554.59
  A 0.84 0.84 0.0 0 0 331.61 553.75
  L 184.39 553.75
  A 0.84 0.84 0.0 0 0 183.55 554.59
  L 183.55 554.63
  A 0.84 0.84 0.0 0 0 184.39 555.47
  L 331.61 555.47
  A 0.84 0.84 0.0 0 0 332.45 554.63
  L 332.45 554.59
  Z
  M 332.41 563.53
  A 0.27 0.27 0.0 0 0 332.14 563.26
  L 184.04 563.26
  A 0.27 0.27 0.0 0 0 183.77 563.53
  L 183.77 564.73
  A 0.27 0.27 0.0 0 0 184.04 565.00
  L 332.14 565.00
  A 0.27 0.27 0.0 0 0 332.41 564.73
  L 332.41 563.53
  Z
  M 274.98 573.65
  A 0.80 0.80 0.0 0 0 274.18 572.85
  L 184.32 572.85
  A 0.80 0.80 0.0 0 0 183.52 573.65
  L 183.52 573.69
  A 0.80 0.80 0.0 0 0 184.32 574.49
  L 274.18 574.49
  A 0.80 0.80 0.0 0 0 274.98 573.69
  L 274.98 573.65
  Z"
/>
<path fill="#9ae7f7" d="
  M 354.06 477.03
  L 365.38 477.07
  Q 365.96 477.08 366.15 477.63
  Q 366.54 478.81 366.14 480.63
  L 366.09 498.97
  L 366.02 612.48
  A 0.52 0.52 0.0 0 1 365.50 613.00
  L 167.50 613.00
  A 0.50 0.49 90.0 0 1 167.01 612.50
  L 167.00 601.88
  L 353.37 602.09
  Q 353.97 602.09 353.97 601.49
  L 354.06 477.03
  Z"
/>
<path fill="#71c380" d="
  M 681.07 478.20
  Q 679.18 482.03 676.50 480.75
  Q 674.74 479.90 675.90 478.27
  L 681.07 478.20
  Z"
/>
<path fill="#c02e15" d="
  M 709.63 480.02
  Q 714.74 480.28 719.14 482.65
  Q 718.07 483.27 718.34 483.45
  Q 714.40 480.88 709.39 480.82
  L 709.63 480.02
  Z"
/>
<path fill="#71c380" d="
  M 705.31 484.39
  Q 704.65 485.00 707.33 485.18
  Q 707.35 486.62 709.47 486.21
  Q 709.60 486.65 710.02 486.76
  Q 706.86 489.41 703.24 490.12
  A 1.56 1.55 2.4 0 1 701.44 488.17
  Q 702.20 485.47 705.31 484.39
  Z"
/>
<path fill="#222d54" d="
  M 709.47 486.21
  Q 707.35 486.62 707.33 485.18
  Q 708.71 485.08 709.47 486.21
  Z"
/>
<path fill="#03b0d4" fill-opacity="0.996" d="
  M 332.33 532.09
  A 0.91 0.91 0.0 0 1 331.42 533.00
  L 185.18 533.00
  A 0.91 0.91 0.0 0 1 184.27 532.09
  L 184.27 494.17
  A 0.91 0.91 0.0 0 1 185.18 493.26
  L 331.42 493.26
  A 0.91 0.91 0.0 0 1 332.33 494.17
  L 332.33 532.09
  Z
  M 330.76 495.59
  A 0.59 0.59 0.0 0 0 330.17 495.00
  L 186.59 495.00
  A 0.59 0.59 0.0 0 0 186.00 495.59
  L 186.00 531.15
  A 0.59 0.59 0.0 0 0 186.59 531.74
  L 330.17 531.74
  A 0.59 0.59 0.0 0 0 330.76 531.15
  L 330.76 495.59
  Z"
/>
<path fill="#ffdd99" d="
  M 980.84 495.86
  L 975.09 512.09
  A 2.36 2.36 0.0 0 0 976.04 514.86
  L 981.10 518.13
  Q 985.13 520.06 987.42 523.52
  Q 977.99 528.39 967.90 531.60
  C 960.53 533.95 958.58 549.56 950.72 550.84
  L 947.86 545.27
  Q 948.91 545.16 947.33 543.32
  Q 947.02 542.97 946.90 542.51
  Q 946.19 539.82 944.45 537.70
  Q 944.10 537.28 943.56 537.35
  L 925.99 539.58
  Q 923.90 537.12 928.58 532.57
  Q 933.48 527.81 938.93 523.68
  C 942.18 521.22 941.00 509.00 941.00 505.05
  A 1.39 1.36 -24.9 0 1 941.34 504.15
  C 942.51 502.82 943.99 502.18 945.86 502.55
  Q 952.48 503.84 958.85 506.17
  A 1.09 1.06 -49.8 0 0 959.76 506.08
  Q 968.04 501.19 975.91 495.73
  C 977.51 494.62 979.62 494.13 980.84 495.86
  Z"
/>
<rect fill="#9ae7f7" x="186.00" y="495.00" width="144.76" height="36.74" rx="0.59"/>
<path fill="#ffcc66" d="
  M 980.84 495.86
  L 985.79 502.80
  Q 986.11 503.24 985.94 503.76
  L 981.10 518.13
  L 976.04 514.86
  A 2.36 2.36 0.0 0 1 975.09 512.09
  L 980.84 495.86
  Z"
/>
<path fill="#222d54" d="
  M 367.24 501.04
  Q 369.30 502.23 368.83 503.90
  Q 367.34 502.76 367.24 501.04
  Z"
/>
<path fill="#03b0d4" fill-opacity="0.996" d="
  M 638.47 512.46
  L 636.86 516.01
  Q 636.64 516.50 636.10 516.50
  L 577.65 516.50
  Q 577.13 516.50 577.13 517.02
  L 577.12 517.34
  Q 577.12 518.00 577.78 518.00
  L 635.34 517.96
  Q 636.00 517.96 635.78 518.58
  L 634.89 521.19
  A 0.72 0.72 0.0 0 1 634.22 521.68
  L 624.32 521.91
  A 0.33 0.33 0.0 0 0 624.05 522.41
  L 631.37 534.48
  Q 631.69 535.00 632.30 535.00
  L 715.50 535.00
  A 0.32 0.32 0.0 0 0 715.65 534.40
  Q 705.98 529.35 696.47 524.01
  C 692.35 521.70 688.79 521.51 684.30 521.79
  Q 683.56 521.83 684.11 521.34
  L 690.63 515.46
  L 726.67 535.57
  A 1.09 1.09 0.0 0 1 726.76 537.42
  C 722.27 540.55 714.67 545.75 709.21 545.75
  Q 613.73 545.75 518.25 545.56
  Q 517.65 545.56 516.93 545.35
  Q 510.99 542.15 505.57 537.58
  Q 504.44 536.98 505.45 535.52
  Q 505.88 534.89 506.83 534.25
  Q 519.43 525.76 531.64 516.66
  Q 532.06 516.35 532.28 516.82
  L 533.79 520.04
  Q 533.00 521.82 534.99 522.52
  L 537.46 527.47
  Q 531.24 527.97 526.00 530.01
  A 1.24 1.23 -41.7 0 0 525.87 532.25
  C 533.40 536.27 547.98 535.77 555.75 532.56
  A 1.26 1.26 0.0 0 0 556.11 530.45
  Q 554.35 528.88 550.96 528.13
  Q 551.17 527.43 550.69 527.02
  Q 551.01 525.57 550.30 524.73
  L 549.67 523.06
  L 550.18 522.34
  Q 550.44 521.96 550.90 521.97
  Q 559.83 522.15 568.75 521.75
  Q 569.12 521.73 569.23 521.31
  Q 569.35 520.77 568.80 520.77
  L 549.05 520.70
  L 548.25 518.05
  Q 559.76 518.04 571.17 517.84
  Q 571.57 517.83 571.76 517.64
  Q 572.03 517.37 572.01 516.97
  Q 571.99 516.56 571.58 516.56
  L 548.07 516.62
  Q 546.97 515.09 547.08 513.60
  Q 547.14 512.60 548.14 512.60
  L 638.47 512.46
  Z
  M 619.17 522.14
  A 0.35 0.35 0.0 0 0 618.86 521.96
  L 575.08 522.02
  A 0.35 0.35 0.0 0 0 574.79 522.18
  L 567.08 534.46
  A 0.35 0.35 0.0 0 0 567.37 535.00
  L 625.51 535.00
  A 0.35 0.35 0.0 0 0 625.82 534.48
  L 619.17 522.14
  Z"
/>
<path fill="#9ae7f7" d="
  M 548.25 518.05
  Q 547.88 517.59 548.07 516.62
  L 571.58 516.56
  Q 571.99 516.56 572.01 516.97
  Q 572.03 517.37 571.76 517.64
  Q 571.57 517.83 571.17 517.84
  Q 559.76 518.04 548.25 518.05
  Z"
/>
<path fill="#9ae7f7" d="
  M 533.79 520.04
  L 534.99 522.52
  Q 533.00 521.82 533.79 520.04
  Z"
/>
<path fill="#9ae7f7" d="
  M 549.05 520.70
  L 568.80 520.77
  Q 569.35 520.77 569.23 521.31
  Q 569.12 521.73 568.75 521.75
  Q 559.83 522.15 550.90 521.97
  Q 550.44 521.96 550.18 522.34
  L 549.67 523.06
  Q 548.85 521.87 549.05 520.70
  Z"
/>
<path fill="#9ae7f7" d="
  M 619.17 522.14
  L 625.82 534.48
  A 0.35 0.35 0.0 0 1 625.51 535.00
  L 567.37 535.00
  A 0.35 0.35 0.0 0 1 567.08 534.46
  L 574.79 522.18
  A 0.35 0.35 0.0 0 1 575.08 522.02
  L 618.86 521.96
  A 0.35 0.35 0.0 0 1 619.17 522.14
  Z"
/>
<path fill="#ffcc66" d="
  M 987.42 523.52
  C 989.27 526.11 991.59 528.84 990.86 531.56
  Q 990.73 532.03 990.32 532.30
  C 985.12 535.65 977.67 537.17 971.94 539.36
  A 5.73 5.70 4.6 0 0 969.01 541.84
  C 966.59 545.98 961.41 556.16 956.89 558.21
  A 0.81 0.80 59.4 0 1 955.91 557.95
  L 950.72 550.84
  C 958.58 549.56 960.53 533.95 967.90 531.60
  Q 977.99 528.39 987.42 523.52
  Z"
/>
<path fill="#93d0a9" d="
  M 550.30 524.73
  Q 551.01 525.57 550.69 527.02
  Q 549.49 525.93 550.30 524.73
  Z"
/>
<path fill="#9ae7f7" d="
  M 537.46 527.47
  Q 538.34 528.88 539.50 530.70
  C 542.74 535.78 551.69 535.75 550.96 528.13
  Q 554.35 528.88 556.11 530.45
  A 1.26 1.26 0.0 0 1 555.75 532.56
  C 547.98 535.77 533.40 536.27 525.87 532.25
  A 1.24 1.23 -41.7 0 1 526.00 530.01
  Q 531.24 527.97 537.46 527.47
  Z"
/>
<path fill="#ffcc66" d="
  M 947.86 545.27
  L 931.38 546.34
  A 0.98 0.98 0.0 0 1 930.51 545.93
  L 925.99 539.58
  L 943.56 537.35
  Q 944.10 537.28 944.45 537.70
  Q 946.19 539.82 946.90 542.51
  Q 947.02 542.97 947.33 543.32
  Q 948.91 545.16 947.86 545.27
  Z"
/>
<path fill="#c02e15" d="
  M 505.57 537.58
  Q 510.99 542.15 516.93 545.35
  Q 516.83 546.19 515.79 545.94
  Q 515.33 545.83 514.79 545.40
  Q 510.62 542.03 506.06 539.20
  Q 505.35 538.75 505.57 537.58
  Z"
/>
<rect fill="#03b0d4" fill-opacity="0.996" x="183.59" y="544.25" width="149.00" height="1.74" rx="0.32"/>
<rect fill="#03b0d4" fill-opacity="0.996" x="183.55" y="553.75" width="148.90" height="1.72" rx="0.84"/>
<path fill="#93d0a9" d="
  M 544.56 689.94
  Q 556.83 700.96 569.82 711.86
  A 0.94 0.94 0.0 0 1 569.19 713.52
  C 566.64 713.42 563.73 713.79 561.28 713.07
  C 536.24 705.73 514.33 683.03 501.03 662.00
  C 484.54 635.93 473.00 606.10 469.63 575.32
  C 469.34 572.64 469.49 564.89 471.92 563.20
  A 1.73 1.72 57.5 0 1 474.39 563.75
  C 482.98 578.38 486.96 591.21 495.07 610.69
  C 507.39 640.24 521.49 669.21 544.56 689.94
  Z"
/>
<rect fill="#03b0d4" fill-opacity="0.996" x="183.77" y="563.26" width="148.64" height="1.74" rx="0.27"/>
<circle fill="#9ae7f7" cx="833.73" cy="578.97" r="13.26"/>
<rect fill="#03b0d4" fill-opacity="0.996" x="183.52" y="572.85" width="91.46" height="1.64" rx="0.80"/>
<path fill="#03b0d4" fill-opacity="0.996" d="
  M 276.29 769.14
  C 247.58 767.00 218.01 760.83 191.27 753.43
  C 113.47 731.92 20.94 685.57 0.31 598.50
  Q 0.09 597.57 0.53 596.96
  A 0.51 0.51 0.0 0 1 1.44 597.13
  C 9.69 631.15 27.05 657.65 52.97 681.27
  C 73.52 700.00 96.93 714.68 122.13 726.28
  Q 186.49 755.92 256.77 765.39
  Q 266.25 766.67 275.74 768.04
  Q 276.39 768.13 276.65 768.54
  Q 277.06 769.20 276.29 769.14
  Z"
/>
<circle fill="#9ae7f7" cx="1107.51" cy="645.69" r="8.92"/>
<circle fill="#9ae7f7" cx="120.74" cy="649.32" r="8.08"/>
<circle fill="#9ae7f7" cx="1148.39" cy="683.78" r="5.75"/>
<path fill="#03b0d4" fill-opacity="0.996" d="
  M 361.26 720.61
  C 292.17 717.42 223.62 703.77 158.42 680.71
  Q 157.02 680.22 156.37 679.41
  A 0.49 0.48 79.2 0 1 156.89 678.64
  Q 169.32 682.56 180.63 686.22
  C 258.13 711.31 338.89 722.41 420.39 719.17
  A 0.76 0.76 0.0 0 1 421.02 720.40
  Q 420.57 720.97 419.50 720.95
  C 400.11 720.61 380.49 721.50 361.26 720.61
  Z"
/>
<ellipse fill="#c02e15" cx="0.00" cy="0.00" transform="translate(743.45,687.93) rotate(80.0)" rx="0.84" ry="0.48"/>
<path fill="#03b0d4" fill-opacity="0.996" d="
  M 1062.78 726.02
  L 1062.75 827.64
  A 0.57 0.57 0.0 0 1 1062.18 828.21
  L 909.80 828.19
  L 900.01 828.04
  A 1.03 1.03 0.0 0 1 899.00 827.01
  L 899.00 716.00
  A 1.00 1.00 0.0 0 1 900.00 715.00
  L 1061.06 715.00
  A 1.75 1.75 0.0 0 1 1062.81 716.76
  L 1062.78 726.02
  Z
  M 909.70 826.55
  L 1060.43 826.50
  Q 1060.95 826.50 1060.95 825.98
  L 1060.97 726.00
  L 1060.99 717.51
  A 0.51 0.50 90.0 0 0 1060.49 717.00
  L 901.50 717.00
  A 0.50 0.50 0.0 0 0 901.00 717.50
  L 901.00 826.01
  A 0.67 0.67 0.0 0 0 901.54 826.67
  Q 905.58 827.48 909.70 826.55
  Z"
/>
<path fill="#9ae7f7" d="
  M 1060.97 726.00
  L 1060.95 825.98
  Q 1060.95 826.50 1060.43 826.50
  L 909.70 826.55
  Q 909.67 825.61 909.78 825.12
  Q 909.99 824.24 909.99 824.18
  Q 910.01 775.34 910.00 726.53
  A 0.53 0.53 0.0 0 1 910.53 726.00
  L 1060.97 726.00
  Z
  M 1032.00 747.00
  Q 1036.15 747.33 1040.34 747.09
  Q 1040.78 747.07 1040.91 746.65
  L 1040.99 746.40
  A 0.66 0.65 9.2 0 0 1040.37 745.55
  L 919.96 745.49
  A 0.72 0.72 0.0 0 0 919.66 746.87
  Q 920.61 747.31 922.25 747.30
  Q 976.86 747.26 1031.47 747.25
  Q 1031.65 747.25 1031.77 747.10
  Q 1031.87 746.99 1032.00 747.00
  Z
  M 1041.01 754.11
  A 0.86 0.86 0.0 0 0 1040.15 753.25
  L 920.11 753.25
  A 0.86 0.86 0.0 0 0 919.25 754.11
  L 919.25 754.15
  A 0.86 0.86 0.0 0 0 920.11 755.01
  L 1040.15 755.01
  A 0.86 0.86 0.0 0 0 1041.01 754.15
  L 1041.01 754.11
  Z
  M 1040.98 761.86
  A 0.86 0.86 0.0 0 0 1040.12 761.00
  L 920.12 761.00
  A 0.86 0.86 0.0 0 0 919.26 761.86
  L 919.26 761.88
  A 0.86 0.86 0.0 0 0 920.12 762.74
  L 1040.12 762.74
  A 0.86 0.86 0.0 0 0 1040.98 761.88
  L 1040.98 761.86
  Z
  M 994.1500 769.7853
  A 0.74 0.74 0.0 0 0 993.4113 769.0440
  L 920.0514 768.9160
  A 0.74 0.74 0.0 0 0 919.3101 769.6547
  L 919.3100 769.6747
  A 0.74 0.74 0.0 0 0 920.0487 770.4160
  L 993.4086 770.5440
  A 0.74 0.74 0.0 0 0 994.1499 769.8053
  L 994.1500 769.7853
  Z
  M 948.1143 780.7250
  A 0.45 0.45 0.0 0 0 947.6651 780.2742
  L 919.9451 780.2258
  A 0.45 0.45 0.0 0 0 919.4943 780.6750
  L 919.4457 808.5150
  A 0.45 0.45 0.0 0 0 919.8949 808.9658
  L 947.6149 809.0142
  A 0.45 0.45 0.0 0 0 948.0657 808.5650
  L 948.1143 780.7250
  Z
  M 1039.92 799.81
  A 0.63 0.63 0.0 0 0 1039.29 799.18
  L 957.73 799.18
  A 0.63 0.63 0.0 0 0 957.10 799.81
  L 957.10 800.19
  A 0.63 0.63 0.0 0 0 957.73 800.82
  L 1039.29 800.82
  A 0.63 0.63 0.0 0 0 1039.92 800.19
  L 1039.92 799.81
  Z
  M 1008.73 808.11
  A 0.86 0.86 0.0 0 0 1007.87 807.25
  L 957.87 807.25
  A 0.86 0.86 0.0 0 0 957.01 808.11
  L 957.01 808.13
  A 0.86 0.86 0.0 0 0 957.87 808.99
  L 1007.87 808.99
  A 0.86 0.86 0.0 0 0 1008.73 808.13
  L 1008.73 808.11
  Z"
/>
<path fill="#9ae7f7" d="
  M 1062.78 726.02
  L 1071.52 726.02
  Q 1072.00 726.02 1072.00 726.50
  L 1072.00 836.50
  A 0.50 0.50 0.0 0 1 1071.50 837.00
  L 910.77 837.00
  A 0.82 0.82 0.0 0 1 909.95 836.20
  L 909.80 828.19
  L 1062.18 828.21
  A 0.57 0.57 0.0 0 0 1062.75 827.64
  L 1062.78 726.02
  Z"
/>
<ellipse fill="#595bd9" cx="0.00" cy="0.00" transform="translate(505.52,742.59) rotate(96.5)" rx="1.26" ry="0.53"/>
<path fill="#03b0d4" fill-opacity="0.996" d="
  M 1032.00 747.00
  Q 1031.87 746.99 1031.77 747.10
  Q 1031.65 747.25 1031.47 747.25
  Q 976.86 747.26 922.25 747.30
  Q 920.61 747.31 919.66 746.87
  A 0.72 0.72 0.0 0 1 919.96 745.49
  L 1040.37 745.55
  A 0.66 0.65 9.2 0 1 1040.99 746.40
  L 1040.91 746.65
  Q 1040.78 747.07 1040.34 747.09
  Q 1036.15 747.33 1032.00 747.00
  Z"
/>
<rect fill="#03b0d4" fill-opacity="0.996" x="919.25" y="753.25" width="121.76" height="1.76" rx="0.86"/>
<ellipse fill="#595bd9" cx="0.00" cy="0.00" transform="translate(504.40,756.72) rotate(94.1)" rx="1.50" ry="0.39"/>
<circle fill="#9ae7f7" cx="89.29" cy="775.69" r="19.02"/>
<rect fill="#03b0d4" fill-opacity="0.996" x="919.26" y="761.00" width="121.72" height="1.74" rx="0.86"/>
<rect fill="#03b0d4" fill-opacity="0.996" x="-37.42" y="-0.75" transform="translate(956.73,769.73) rotate(0.1)" width="74.84" height="1.50" rx="0.74"/>
<path fill="#595bd9" d="
  M 503.37 772.33
  A 0.35 0.34 60.4 0 1 504.01 772.51
  L 503.98 774.91
  A 0.28 0.28 0.0 0 1 503.47 775.07
  Q 502.55 773.74 503.37 772.33
  Z"
/>
<path fill="#d1d2d4" d="
  M 702.44 793.44
  A 115.11 15.90 0.0 0 1 587.33 809.34
  A 115.11 15.90 0.0 0 1 472.22 793.44
  A 115.11 15.90 0.0 0 1 587.33 777.54
  A 115.11 15.90 0.0 0 1 702.44 793.44
  Z
  M 502.19 795.44
  Q 501.83 795.76 502.25 796.52
  A 0.25 0.25 0.0 0 0 502.72 796.41
  Q 502.79 794.68 503.03 792.77
  Q 503.09 792.32 502.58 792.28
  Q 502.26 792.26 502.26 792.58
  Q 502.25 794.04 502.19 795.44
  Z"
/>
<path fill="#03b0d4" fill-opacity="0.996" d="
  M 948.0657 808.5650
  A 0.45 0.45 0.0 0 1 947.6149 809.0142
  L 919.8949 808.9658
  A 0.45 0.45 0.0 0 1 919.4457 808.5150
  L 919.4943 780.6750
  A 0.45 0.45 0.0 0 1 919.9451 780.2258
  L 947.6651 780.2742
  A 0.45 0.45 0.0 0 1 948.1143 780.7250
  L 948.0657 808.5650
  Z
  M 921.38 782.00
  A 0.30 0.30 0.0 0 0 921.08 782.30
  L 920.81 807.20
  A 0.30 0.30 0.0 0 0 921.11 807.50
  L 946.50 807.50
  A 0.30 0.30 0.0 0 0 946.80 807.20
  L 946.46 782.30
  A 0.30 0.30 0.0 0 0 946.16 782.00
  L 921.38 782.00
  Z"
/>
<path fill="#9ae7f7" d="
  M 921.38 782.00
  L 946.16 782.00
  A 0.30 0.30 0.0 0 1 946.46 782.30
  L 946.80 807.20
  A 0.30 0.30 0.0 0 1 946.50 807.50
  L 921.11 807.50
  A 0.30 0.30 0.0 0 1 920.81 807.20
  L 921.08 782.30
  A 0.30 0.30 0.0 0 1 921.38 782.00
  Z"
/>
<path fill="#595bd9" d="
  M 502.19 795.44
  Q 502.25 794.04 502.26 792.58
  Q 502.26 792.26 502.58 792.28
  Q 503.09 792.32 503.03 792.77
  Q 502.79 794.68 502.72 796.41
  A 0.25 0.25 0.0 0 1 502.25 796.52
  Q 501.83 795.76 502.19 795.44
  Z"
/>
<rect fill="#03b0d4" fill-opacity="0.996" x="957.10" y="799.18" width="82.82" height="1.64" rx="0.63"/>
<rect fill="#03b0d4" fill-opacity="0.996" x="957.01" y="807.25" width="51.72" height="1.74" rx="0.86"/>
<path fill="#ffdd99" d="
  M 247.16 853.19
  L 222.70 859.63
  Q 220.86 860.12 220.86 862.02
  L 220.84 871.38
  Q 221.76 877.53 220.18 882.97
  Q 215.71 883.44 213.78 882.00
  Q 202.74 873.78 191.53 865.80
  C 187.65 863.04 178.39 864.60 173.67 864.75
  C 167.34 864.96 157.92 866.93 154.42 860.63
  L 159.13 852.75
  Q 162.69 848.07 164.86 842.98
  A 1.69 1.68 36.3 0 0 164.59 841.24
  L 146.61 820.29
  Q 146.92 817.65 149.59 817.25
  Q 150.82 817.07 153.41 817.65
  C 162.17 819.63 171.69 822.39 180.62 823.07
  A 5.09 5.08 28.8 0 0 184.03 822.08
  Q 189.97 817.62 196.28 812.90
  C 212.30 800.90 209.82 832.99 220.65 836.91
  C 228.50 839.76 236.26 843.27 243.91 846.61
  Q 246.43 847.71 247.89 849.22
  Q 248.26 849.60 248.18 850.13
  Q 247.81 852.51 247.16 853.19
  Z"
/>
<path fill="#ffdd99" d="
  M 414.76 816.70
  Q 413.36 820.82 413.27 824.26
  Q 413.02 833.16 412.01 842.15
  A 1.25 1.24 -73.7 0 1 410.23 843.13
  Q 397.83 837.03 384.94 831.32
  Q 384.13 830.96 383.34 831.46
  Q 381.99 829.47 383.51 828.72
  Q 397.66 821.83 411.91 815.14
  C 413.54 814.38 414.39 815.13 414.76 816.70
  Z"
/>
<path fill="#ffcc66" d="
  M 414.76 816.70
  Q 416.37 820.37 416.34 821.50
  Q 415.98 835.15 414.84 848.29
  A 1.28 1.28 0.0 0 1 413.02 849.33
  Q 400.58 843.41 388.09 837.63
  C 385.26 836.32 384.19 834.24 383.34 831.46
  Q 384.13 830.96 384.94 831.32
  Q 397.83 837.03 410.23 843.13
  A 1.25 1.24 -73.7 0 0 412.01 842.15
  Q 413.02 833.16 413.27 824.26
  Q 413.36 820.82 414.76 816.70
  Z"
/>
<path fill="#ffcc66" d="
  M 159.13 852.75
  L 143.20 834.44
  Q 142.51 833.65 142.82 832.65
  L 146.61 820.29
  L 164.59 841.24
  A 1.69 1.68 36.3 0 1 164.86 842.98
  Q 162.69 848.07 159.13 852.75
  Z"
/>
<path fill="#03b0d4" fill-opacity="0.996" d="
  M 687.79 834.46
  C 530.79 927.98 346.59 967.03 164.56 937.24
  A 0.62 0.62 0.0 0 1 164.45 936.05
  Q 165.05 935.82 166.00 935.98
  Q 209.01 942.88 252.50 944.68
  C 272.06 945.49 291.88 944.93 311.50 944.80
  Q 322.63 944.73 331.48 944.20
  C 382.41 941.14 433.66 933.22 482.83 919.46
  Q 495.70 915.86 500.67 915.08
  Q 506.35 914.19 510.43 912.11
  Q 514.32 910.12 515.95 909.58
  C 542.86 900.77 570.02 891.34 595.50 879.99
  C 626.29 866.29 651.75 853.20 685.43 833.34
  Q 686.13 832.92 686.69 832.88
  Q 687.65 832.81 688.04 833.44
  A 0.74 0.74 0.0 0 1 687.79 834.46
  Z"
/>
<path fill="#ffcc66" d="
  M 247.16 853.19
  L 243.57 863.67
  A 3.79 3.78 -87.8 0 1 240.94 866.11
  L 220.84 871.38
  L 220.86 862.02
  Q 220.86 860.12 222.70 859.63
  L 247.16 853.19
  Z"
/>
<path fill="#ffcc66" d="
  M 154.42 860.63
  C 157.92 866.93 167.34 864.96 173.67 864.75
  C 178.39 864.60 187.65 863.04 191.53 865.80
  Q 202.74 873.78 213.78 882.00
  Q 215.71 883.44 220.18 882.97
  Q 218.59 888.20 216.76 892.99
  C 214.84 898.03 210.62 895.80 207.33 893.42
  Q 197.11 886.02 186.95 878.54
  C 185.06 877.15 181.67 876.96 178.96 877.20
  Q 171.67 877.84 157.27 877.92
  Q 152.18 877.94 150.51 874.42
  A 1.55 1.52 -49.6 0 1 150.43 873.30
  L 154.42 860.63
  Z"
/>
<ellipse fill="#595bd9" cx="0.00" cy="0.00" transform="translate(497.51,927.48) rotate(88.3)" rx="1.27" ry="0.54"/>
<path fill="#03b0d4" fill-opacity="0.996" d="
  M 376.64 970.13
  C 301.63 983.24 223.39 983.85 148.99 966.30
  C 119.99 959.45 92.17 948.43 67.12 932.16
  Q 66.28 931.62 65.97 931.12
  A 0.77 0.77 0.0 0 1 67.06 930.07
  Q 80.72 939.41 95.87 946.32
  C 136.14 964.70 180.77 973.23 224.69 976.50
  C 234.10 977.20 243.27 977.90 252.88 977.89
  C 267.68 977.87 282.97 978.29 297.23 977.52
  Q 336.47 975.43 375.26 969.05
  Q 376.17 968.90 376.79 969.26
  A 0.47 0.47 0.0 0 1 376.64 970.13
  Z"
/>
<ellipse fill="#595bd9" cx="0.00" cy="0.00" transform="translate(496.54,950.64) rotate(89.8)" rx="2.45" ry="0.51"/>
<circle fill="#9ae7f7" cx="945.29" cy="1058.83" r="8.85"/>
<circle fill="#9ae7f7" cx="995.01" cy="1061.73" r="10.36"/>
<path fill="#ffdd99" d="
  M 1249.44 1107.76
  Q 1248.71 1107.15 1248.03 1107.36
  Q 1222.17 1115.13 1196.87 1122.71
  A 1.76 1.76 0.0 0 1 1194.62 1120.80
  L 1201.15 1069.45
  Q 1200.81 1068.62 1202.64 1067.34
  Q 1203.39 1066.82 1204.10 1067.38
  L 1250.81 1103.96
  A 0.78 0.76 27.6 0 1 1251.08 1104.80
  Q 1250.61 1106.41 1249.44 1107.76
  Z"
/>
<path fill="#ffcc66" d="
  M 1201.15 1069.45
  L 1194.62 1120.80
  A 1.76 1.76 0.0 0 0 1196.87 1122.71
  Q 1222.17 1115.13 1248.03 1107.36
  Q 1248.71 1107.15 1249.44 1107.76
  C 1247.17 1111.44 1243.28 1118.69 1239.88 1119.76
  Q 1216.12 1127.28 1192.23 1134.42
  C 1190.66 1134.88 1188.85 1135.04 1187.25 1135.31
  A 1.20 1.20 0.0 0 1 1185.85 1133.97
  Q 1189.11 1108.80 1192.26 1084.48
  C 1192.94 1079.24 1197.70 1073.54 1201.15 1069.45
  Z"
/>
<path fill="#c02e15" d="
  M 242.58 1091.15
  Q 240.51 1091.68 236.93 1093.16
  Q 196.28 1110.08 155.70 1127.16
  C 153.72 1127.99 152.41 1129.37 150.86 1130.80
  L 140.03 1119.19
  A 1.42 1.41 -36.5 0 1 140.36 1117.00
  Q 145.33 1114.15 151.44 1111.60
  Q 190.30 1095.44 229.04 1079.08
  Q 230.06 1078.66 230.84 1079.44
  L 242.58 1091.15
  Z"
/>
<path fill="#222d54" d="
  M 724.26 1085.57
  A 0.28 0.28 0.0 0 1 724.37 1085.21
  L 724.70 1085.02
  A 0.20 0.20 0.0 0 1 725.00 1085.21
  Q 724.87 1086.44 725.84 1087.21
  Q 726.31 1087.57 725.79 1087.84
  L 725.52 1087.98
  A 0.07 0.07 0.0 0 1 725.42 1087.95
  L 724.26 1085.57
  Z"
/>
<path fill="#ff3e1d" d="
  M 242.58 1091.15
  C 244.46 1092.81 245.19 1094.13 244.15 1096.67
  Q 226.31 1139.88 208.48 1183.09
  Q 208.28 1183.58 207.80 1183.82
  Q 205.65 1184.86 203.59 1182.91
  Q 171.13 1152.11 150.86 1130.80
  C 152.41 1129.37 153.72 1127.99 155.70 1127.16
  Q 196.28 1110.08 236.93 1093.16
  Q 240.51 1091.68 242.58 1091.15
  Z"
/>
<path fill="#595bd9" d="
  M 727.98 1094.39
  A 0.33 0.33 0.0 0 1 727.55 1094.78
  Q 726.70 1094.46 727.09 1093.50
  A 0.35 0.34 48.5 0 1 727.74 1093.54
  L 727.98 1094.39
  Z"
/>
<circle fill="#9ae7f7" cx="904.42" cy="1123.05" r="23.48"/>
</svg>
