<svg width="305" height="16" viewBox="0 0 305 16" fill="none" xmlns="http://www.w3.org/2000/svg">
<path d="M1.88034 11.7257C20.4876 7.86575 39.6563 7.87364 58.5672 6.85155C107.996 4.18006 157.236 1.56436 206.768 1.95388C224.154 2.09061 251.12 2.73266 268.987 3.15918C275.467 3.31389 281.947 3.49458 288.428 3.65129C293.127 3.76491 298.235 2.16866 302.522 4.09678C305.107 5.2598 296.914 4.96352 294.089 5.21087C280.049 6.4406 265.954 7.02087 251.885 7.81441C200.629 10.7054 149.278 10.2382 98.0431 12.7575C88.2171 13.2407 78.3737 13.379 68.5569 13.837C67.8397 13.8705 67.216 14.3333 66.5977 14.6288" stroke="#1B1C21" stroke-width="2" stroke-linecap="round" stroke-linejoin="round"/>
</svg>
