<?xml version="1.0" encoding="UTF-8" standalone="no"?>
<!DOCTYPE svg PUBLIC "-//W3C//DTD SVG 1.1//EN" "http://www.w3.org/Graphics/SVG/1.1/DTD/svg11.dtd">
<svg xmlns="http://www.w3.org/2000/svg" version="1.1" viewBox="0.00 0.00 355.00 75.00">
<g stroke-width="2.00" fill="none" stroke-linecap="butt">
<path stroke="#656565" vector-effect="non-scaling-stroke" d="
  M 115.04 9.28
  L 24.06 9.20"
/>
<path stroke="#727272" vector-effect="non-scaling-stroke" d="
  M 109.05 17.00
  L 41.42 16.88
  Q 39.30 16.88 37.17 16.90
  Q 30.20 16.97 17.10 16.78"
/>
<path stroke="#848484" vector-effect="non-scaling-stroke" d="
  M 34.62 24.04
  L 14.47 23.93"
/>
<path stroke="#969696" vector-effect="non-scaling-stroke" d="
  M 35.77 29.47
  Q 35.64 29.96 35.50 29.95
  Q 24.71 29.20 14.04 30.04"
/>
<path stroke="#a9a9a9" vector-effect="non-scaling-stroke" d="
  M 96.85 36.07
  Q 57.44 36.03 18.75 36.40
  Q 16.94 36.41 17.31 37.50"
/>
<path stroke="#cbcbcb" vector-effect="non-scaling-stroke" d="
  M 99.87 43.81
  L 77.63 44.05"
/>
<path stroke="#ebeaea" vector-effect="non-scaling-stroke" d="
  M 96.00 57.98
  L 15.69 58.02"
/>
<path stroke="#fe931e" vector-effect="non-scaling-stroke" d="
  M 292.55 29.99
  Q 292.38 30.93 291.94 31.51
  Q 291.65 31.90 291.22 31.70
  L 289.70 31.02"
/>
<path stroke="#fe931e" vector-effect="non-scaling-stroke" d="
  M 286.24 69.32
  Q 285.28 69.26 285.34 67.90
  Q 285.36 67.37 284.84 67.37
  L 261.90 67.42
  Q 261.37 67.42 261.24 67.94
  L 260.88 69.39"
/>
<path stroke="#fe931e" vector-effect="non-scaling-stroke" d="
  M 277.54 17.26
  L 277.15 17.96
  Q 277.04 18.18 277.27 18.26
  L 277.59 18.37
  A 0.11 0.11 0.0 0 1 277.65 18.51
  Q 277.55 18.75 277.26 18.56
  C 273.46 16.06 270.89 19.49 268.59 21.95
  A 1.54 1.51 -20.6 0 0 268.20 22.79
  C 268.00 24.69 266.53 25.57 266.19 27.11
  Q 265.50 30.22 266.93 34.23
  Q 269.71 42.05 276.82 40.15
  C 280.15 39.26 281.14 34.70 282.36 30.98
  Q 283.51 27.49 280.59 21.70"
/>
<path stroke="#8f8f8f" vector-effect="non-scaling-stroke" d="
  M 125.97 50.14
  L 116.84 50.32"
/>
<path stroke="#d4d3d4" vector-effect="non-scaling-stroke" d="
  M 123.57 63.16
  Q 118.78 62.36 114.23 63.36"
/>
<path stroke="#656565" vector-effect="non-scaling-stroke" d="
  M 178.64 43.34
  L 146.99 43.33"
/>
<path stroke="#848484" vector-effect="non-scaling-stroke" d="
  M 154.69 51.21
  Q 151.31 49.15 145.53 50.44"
/>
<path stroke="#a9a9a9" vector-effect="non-scaling-stroke" d="
  M 174.28 55.54
  C 172.86 55.10 171.40 56.06 170.23 55.40
  Q 169.82 55.17 169.34 55.17
  L 144.54 55.38"
/>
<path stroke="#cbcbcb" vector-effect="non-scaling-stroke" d="
  M 153.28 58.57
  Q 148.92 59.65 144.10 58.96"
/>
<path stroke="#ebeaea" vector-effect="non-scaling-stroke" d="
  M 175.01 65.75
  L 142.84 65.45"
/>
<path stroke="#656565" vector-effect="non-scaling-stroke" d="
  M 216.93 43.03
  Q 211.36 42.77 205.97 42.89
  Q 202.44 42.97 195.53 42.83
  Q 190.25 42.72 185.08 43.28"
/>
<path stroke="#848484" vector-effect="non-scaling-stroke" d="
  M 192.81 51.21
  Q 189.21 49.27 183.74 50.11"
/>
<path stroke="#a9a9a9" vector-effect="non-scaling-stroke" d="
  M 212.35 55.58
  L 182.65 55.60"
/>
<path stroke="#cbcbcb" vector-effect="non-scaling-stroke" d="
  M 190.67 62.31
  L 190.26 62.05
  Q 189.92 61.84 189.52 61.86
  L 181.63 62.25"
/>
<path stroke="#ebeaea" vector-effect="non-scaling-stroke" d="
  M 212.07 66.99
  L 180.64 67.09"
/>
<path stroke="#7c7c7c" vector-effect="non-scaling-stroke" d="
  M 231.55 47.24
  L 222.51 47.61"
/>
<path stroke="#a1a1a1" vector-effect="non-scaling-stroke" d="
  M 230.70 51.83
  L 221.66 51.82"
/>
<path stroke="#cbcbcb" vector-effect="non-scaling-stroke" d="
  M 228.74 62.45
  Q 224.20 60.94 219.56 61.98"
/>
<path stroke="#ebeaea" vector-effect="non-scaling-stroke" d="
  M 248.18 66.53
  L 219.04 66.19"
/>
<path stroke="#6d6d6d" vector-effect="non-scaling-stroke" d="
  M 314.45 43.18
  L 304.99 43.85"
/>
<path stroke="#8c8c8c" vector-effect="non-scaling-stroke" d="
  M 313.21 49.62
  L 304.12 49.83"
/>
<path stroke="#a9a9a9" vector-effect="non-scaling-stroke" d="
  M 311.82 56.48
  L 302.69 56.86"
/>
<path stroke="#cbcbcb" vector-effect="non-scaling-stroke" d="
  M 311.29 60.19
  L 301.97 60.35"
/>
<path stroke="#7c7c7c" vector-effect="non-scaling-stroke" d="
  M 328.64 47.49
  L 319.51 47.59"
/>
<path stroke="#969696" vector-effect="non-scaling-stroke" d="
  M 327.82 52.46
  L 318.53 52.54"
/>
<path stroke="#a9a9a9" vector-effect="non-scaling-stroke" d="
  M 327.23 55.45
  L 318.09 55.73"
/>
<path stroke="#cbcbcb" vector-effect="non-scaling-stroke" d="
  M 325.92 62.27
  Q 322.55 60.70 316.96 61.46"
/>
<path stroke="#ebeaea" vector-effect="non-scaling-stroke" d="
  M 346.47 65.34
  L 316.28 65.14"
/>
</g>
<g>
<path fill="#606060" d="
  M 115.04 9.28
  L 24.06 9.20
  Q 33.30 3.36 44.26 3.33
  Q 81.84 3.21 119.23 3.26
  A 0.35 0.34 -70.0 0 1 119.49 3.83
  L 115.04 9.28
  Z"
/>
<path fill="#fca13b" d="
  M 292.55 29.99
  Q 292.38 30.93 291.94 31.51
  Q 291.65 31.90 291.22 31.70
  L 289.70 31.02
  Q 283.27 20.30 275.43 10.66
  Q 275.27 10.46 275.43 10.25
  L 277.64 7.36
  Q 277.79 7.18 277.92 7.37
  C 282.93 14.59 288.57 22.10 292.55 29.99
  Z"
/>
<path fill="#696969" d="
  M 24.06 9.20
  L 115.04 9.28
  L 109.05 17.00
  L 41.42 16.88
  Q 39.30 16.88 37.17 16.90
  Q 30.20 16.97 17.10 16.78
  Q 20.02 11.57 24.06 9.20
  Z"
/>
<path fill="#ff8501" d="
  M 277.54 17.26
  L 277.15 17.96
  Q 277.04 18.18 277.27 18.26
  L 277.59 18.37
  A 0.11 0.11 0.0 0 1 277.65 18.51
  Q 277.55 18.75 277.26 18.56
  C 273.46 16.06 270.89 19.49 268.59 21.95
  A 1.54 1.51 -20.6 0 0 268.20 22.79
  C 268.00 24.69 266.53 25.57 266.19 27.11
  Q 265.50 30.22 266.93 34.23
  Q 269.71 42.05 276.82 40.15
  C 280.15 39.26 281.14 34.70 282.36 30.98
  Q 283.51 27.49 280.59 21.70
  C 286.75 29.05 292.78 39.35 289.98 49.00
  C 287.12 58.88 274.76 61.44 266.25 58.00
  C 257.21 54.34 255.65 43.94 258.88 35.76
  C 262.18 27.39 268.46 19.88 273.68 12.64
  A 0.44 0.44 0.0 0 1 274.39 12.65
  L 277.54 17.26
  Z"
/>
<path fill="#7a7a7a" d="
  M 17.10 16.78
  Q 30.20 16.97 37.17 16.90
  Q 39.30 16.88 41.42 16.88
  L 109.05 17.00
  L 106.68 20.29
  Q 106.37 20.71 105.84 20.71
  Q 73.80 20.66 41.78 20.73
  C 38.76 20.74 35.89 21.33 34.62 24.04
  L 14.47 23.93
  Q 15.28 19.83 17.10 16.78
  Z"
/>
<path fill="#fca13b" d="
  M 277.54 17.26
  L 280.59 21.70
  Q 283.51 27.49 282.36 30.98
  C 281.14 34.70 280.15 39.26 276.82 40.15
  Q 269.71 42.05 266.93 34.23
  Q 265.50 30.22 266.19 27.11
  C 266.53 25.57 268.00 24.69 268.20 22.79
  A 1.54 1.51 -20.6 0 1 268.59 21.95
  C 270.89 19.49 273.46 16.06 277.26 18.56
  Q 277.55 18.75 277.65 18.51
  A 0.11 0.11 0.0 0 0 277.59 18.37
  L 277.27 18.26
  Q 277.04 18.18 277.15 17.96
  L 277.54 17.26
  Z"
/>
<path fill="#8e8e8e" d="
  M 14.47 23.93
  L 34.62 24.04
  Q 33.37 28.06 35.77 29.47
  Q 35.64 29.96 35.50 29.95
  Q 24.71 29.20 14.04 30.04
  Q 13.70 27.53 14.47 23.93
  Z"
/>
<path fill="#9e9e9e" d="
  M 35.77 29.47
  C 36.98 29.74 38.22 30.24 39.44 30.24
  Q 59.85 30.22 80.25 30.27
  Q 90.20 30.30 96.85 36.07
  Q 57.44 36.03 18.75 36.40
  Q 16.94 36.41 17.31 37.50
  Q 14.57 34.88 14.04 30.04
  Q 24.71 29.20 35.50 29.95
  Q 35.64 29.96 35.77 29.47
  Z"
/>
<path fill="#ff8501" d="
  M 292.55 29.99
  C 299.73 42.80 300.98 61.04 286.24 69.32
  Q 285.28 69.26 285.34 67.90
  Q 285.36 67.37 284.84 67.37
  L 261.90 67.42
  Q 261.37 67.42 261.24 67.94
  L 260.88 69.39
  Q 257.14 67.39 254.67 64.45
  Q 254.33 64.04 254.48 63.52
  Q 255.59 59.70 255.10 55.75
  Q 255.03 55.16 255.54 55.47
  C 256.67 56.15 257.00 57.40 257.73 58.17
  Q 262.41 63.12 269.27 64.22
  C 283.12 66.44 295.42 57.80 293.53 42.74
  Q 292.82 37.10 289.70 31.02
  L 291.22 31.70
  Q 291.65 31.90 291.94 31.51
  Q 292.38 30.93 292.55 29.99
  Z"
/>
<path fill="#b4b4b4" d="
  M 96.85 36.07
  Q 99.47 38.62 99.87 43.81
  L 77.63 44.05
  Q 76.89 44.00 75.87 43.76
  Q 74.91 43.53 74.11 43.53
  Q 55.11 43.53 36.11 43.51
  C 29.60 43.51 22.00 42.65 17.31 37.50
  Q 16.94 36.41 18.75 36.40
  Q 57.44 36.03 96.85 36.07
  Z"
/>
<path fill="#696969" d="
  M 125.97 50.14
  L 116.84 50.32
  L 117.06 48.17
  Q 117.12 47.56 116.50 47.56
  L 104.52 47.62
  Q 103.09 47.62 104.06 46.58
  L 110.38 39.78
  Q 110.65 39.49 111.04 39.49
  L 143.78 39.47
  A 0.42 0.42 0.0 0 1 144.09 40.17
  L 137.38 47.31
  A 0.94 0.94 0.0 0 1 136.69 47.61
  L 127.02 47.57
  A 0.74 0.73 -85.0 0 0 126.29 48.19
  L 125.97 50.14
  Z"
/>
<path fill="#606060" d="
  M 178.64 43.34
  L 146.99 43.33
  L 147.56 40.03
  Q 147.66 39.48 148.21 39.48
  L 181.26 39.48
  Q 182.69 39.48 181.66 40.46
  L 178.64 43.34
  Z"
/>
<path fill="#606060" d="
  M 216.93 43.03
  Q 211.36 42.77 205.97 42.89
  Q 202.44 42.97 195.53 42.83
  Q 190.25 42.72 185.08 43.28
  L 185.40 40.02
  A 0.60 0.59 2.6 0 1 186.00 39.48
  L 219.78 39.48
  A 0.36 0.36 0.0 0 1 220.02 40.10
  L 216.93 43.03
  Z"
/>
<path fill="#696969" d="
  M 231.55 47.24
  L 222.51 47.61
  L 223.67 39.76
  A 0.33 0.33 0.0 0 1 224.00 39.48
  L 232.78 39.49
  A 0.27 0.27 0.0 0 1 233.05 39.81
  L 231.55 47.24
  Z"
/>
<path fill="#606060" d="
  M 314.45 43.18
  L 304.99 43.85
  L 305.61 40.33
  Q 305.75 39.48 306.62 39.48
  L 314.25 39.48
  Q 315.23 39.48 315.03 40.44
  L 314.45 43.18
  Z"
/>
<path fill="#696969" d="
  M 328.64 47.49
  L 319.51 47.59
  L 320.98 39.74
  Q 321.03 39.49 321.28 39.49
  L 329.99 39.48
  A 0.22 0.22 0.0 0 1 330.21 39.75
  L 328.64 47.49
  Z"
/>
<path fill="#696969" d="
  M 216.93 43.03
  L 213.12 47.18
  Q 212.73 47.60 212.16 47.60
  L 193.87 47.58
  A 0.56 0.55 4.2 0 0 193.32 48.05
  L 192.81 51.21
  Q 189.21 49.27 183.74 50.11
  L 185.08 43.28
  Q 190.25 42.72 195.53 42.83
  Q 202.44 42.97 205.97 42.89
  Q 211.36 42.77 216.93 43.03
  Z"
/>
<path fill="#7a7a7a" d="
  M 314.45 43.18
  L 313.21 49.62
  L 304.12 49.83
  L 304.99 43.85
  L 314.45 43.18
  Z"
/>
<path fill="#696969" d="
  M 146.99 43.33
  L 178.64 43.34
  L 174.85 47.28
  Q 174.53 47.60 174.08 47.60
  L 155.92 47.57
  Q 155.21 47.57 155.11 48.28
  L 154.69 51.21
  Q 151.31 49.15 145.53 50.44
  L 146.99 43.33
  Z"
/>
<path fill="#e2e1e1" d="
  M 99.87 43.81
  Q 100.04 50.47 96.00 57.98
  L 15.69 58.02
  L 19.56 53.85
  Q 19.91 53.48 20.42 53.48
  Q 45.59 53.50 70.72 53.46
  C 75.92 53.45 79.66 52.40 79.53 46.53
  Q 79.50 45.28 77.63 44.05
  L 99.87 43.81
  Z"
/>
<path fill="#8e8e8e" d="
  M 231.55 47.24
  L 230.70 51.83
  L 221.66 51.82
  L 222.51 47.61
  L 231.55 47.24
  Z"
/>
<path fill="#8e8e8e" d="
  M 328.64 47.49
  L 327.82 52.46
  L 318.53 52.54
  L 319.51 47.59
  L 328.64 47.49
  Z"
/>
<path fill="#9e9e9e" d="
  M 313.21 49.62
  L 311.82 56.48
  L 302.69 56.86
  L 304.12 49.83
  L 313.21 49.62
  Z"
/>
<path fill="#b4b4b4" d="
  M 125.97 50.14
  L 123.57 63.16
  Q 118.78 62.36 114.23 63.36
  L 116.84 50.32
  L 125.97 50.14
  Z"
/>
<path fill="#9e9e9e" d="
  M 183.74 50.11
  Q 189.21 49.27 192.81 51.21
  L 215.47 51.41
  Q 216.91 51.42 215.84 52.39
  L 212.35 55.58
  L 182.65 55.60
  L 183.74 50.11
  Z"
/>
<path fill="#9e9e9e" d="
  M 145.53 50.44
  Q 151.31 49.15 154.69 51.21
  L 177.41 51.40
  Q 178.88 51.41 177.79 52.39
  L 174.28 55.54
  C 172.86 55.10 171.40 56.06 170.23 55.40
  Q 169.82 55.17 169.34 55.17
  L 144.54 55.38
  L 145.53 50.44
  Z"
/>
<path fill="#b4b4b4" d="
  M 221.66 51.82
  L 230.70 51.83
  L 228.74 62.45
  Q 224.20 60.94 219.56 61.98
  L 221.66 51.82
  Z"
/>
<path fill="#9e9e9e" d="
  M 327.82 52.46
  L 327.23 55.45
  L 318.09 55.73
  L 318.53 52.54
  L 327.82 52.46
  Z"
/>
<path fill="#b4b4b4" d="
  M 174.28 55.54
  L 172.06 57.91
  Q 171.71 58.29 171.19 58.30
  L 153.28 58.57
  Q 148.92 59.65 144.10 58.96
  L 144.54 55.38
  L 169.34 55.17
  Q 169.82 55.17 170.23 55.40
  C 171.40 56.06 172.86 55.10 174.28 55.54
  Z"
/>
<path fill="#b4b4b4" d="
  M 212.35 55.58
  Q 211.20 57.15 209.97 58.02
  Q 209.63 58.25 209.22 58.25
  L 192.01 58.25
  A 0.58 0.57 -83.7 0 0 191.45 58.71
  L 190.67 62.31
  L 190.26 62.05
  Q 189.92 61.84 189.52 61.86
  L 181.63 62.25
  L 182.65 55.60
  L 212.35 55.58
  Z"
/>
<path fill="#b4b4b4" d="
  M 327.23 55.45
  L 325.92 62.27
  Q 322.55 60.70 316.96 61.46
  L 318.09 55.73
  L 327.23 55.45
  Z"
/>
<path fill="#b4b4b4" d="
  M 311.82 56.48
  L 311.29 60.19
  L 301.97 60.35
  L 302.69 56.86
  L 311.82 56.48
  Z"
/>
<path fill="#f3f2f3" d="
  M 96.00 57.98
  Q 92.74 63.35 87.40 66.17
  Q 78.73 70.77 67.50 70.77
  Q 35.63 70.77 3.81 70.74
  A 0.27 0.27 0.0 0 1 3.62 70.28
  L 15.69 58.02
  L 96.00 57.98
  Z"
/>
<path fill="#e2e1e1" d="
  M 144.10 58.96
  Q 148.92 59.65 153.28 58.57
  L 152.53 61.98
  A 0.52 0.51 -83.7 0 0 153.03 62.61
  L 177.49 62.58
  Q 178.43 62.58 177.74 63.22
  L 175.01 65.75
  L 142.84 65.45
  L 144.10 58.96
  Z"
/>
<path fill="#e2e1e1" d="
  M 301.97 60.35
  L 311.29 60.19
  L 309.41 70.18
  A 0.42 0.39 -83.7 0 1 309.02 70.51
  L 300.52 70.49
  A 0.25 0.24 4.8 0 1 300.27 70.21
  L 301.97 60.35
  Z"
/>
<path fill="#e2e1e1" d="
  M 316.96 61.46
  Q 322.55 60.70 325.92 62.27
  L 348.25 62.49
  A 0.52 0.52 0.0 0 1 348.60 63.40
  L 346.47 65.34
  L 316.28 65.14
  L 316.96 61.46
  Z"
/>
<path fill="#e2e1e1" d="
  M 228.74 62.45
  L 251.33 62.51
  Q 252.20 62.52 251.58 63.13
  L 248.18 66.53
  L 219.04 66.19
  L 219.56 61.98
  Q 224.20 60.94 228.74 62.45
  Z"
/>
<path fill="#e2e1e1" d="
  M 190.67 62.31
  L 215.42 62.56
  Q 216.51 62.57 215.74 63.34
  L 212.07 66.99
  L 180.64 67.09
  L 181.63 62.25
  L 189.52 61.86
  Q 189.92 61.84 190.26 62.05
  L 190.67 62.31
  Z"
/>
<path fill="#f3f2f3" d="
  M 123.57 63.16
  L 122.27 70.05
  Q 122.18 70.50 121.72 70.50
  L 113.53 70.50
  Q 113.05 70.50 113.13 70.03
  L 114.23 63.36
  Q 118.78 62.36 123.57 63.16
  Z"
/>
<path fill="#f3f2f3" d="
  M 316.28 65.14
  L 346.47 65.34
  L 341.96 70.12
  Q 341.59 70.50 341.06 70.50
  L 315.52 70.50
  A 0.39 0.38 -82.9 0 1 315.15 70.02
  L 316.28 65.14
  Z"
/>
<path fill="#f3f2f3" d="
  M 142.84 65.45
  L 175.01 65.75
  L 171.04 70.15
  Q 170.72 70.50 170.25 70.50
  L 142.27 70.50
  Q 141.78 70.50 141.88 70.02
  L 142.84 65.45
  Z"
/>
<path fill="#f3f2f3" d="
  M 219.04 66.19
  L 248.18 66.53
  L 244.94 70.18
  Q 244.66 70.50 244.23 70.50
  L 218.72 70.50
  Q 218.05 70.50 218.20 69.85
  L 219.04 66.19
  Z"
/>
<path fill="#f3f2f3" d="
  M 212.07 66.99
  L 209.06 70.16
  Q 208.73 70.50 208.25 70.50
  L 180.47 70.50
  Q 179.88 70.50 180.01 69.92
  L 180.64 67.09
  L 212.07 66.99
  Z"
/>
<path fill="#fca13b" d="
  M 286.24 69.32
  Q 273.37 75.93 260.88 69.39
  L 261.24 67.94
  Q 261.37 67.42 261.90 67.42
  L 284.84 67.37
  Q 285.36 67.37 285.34 67.90
  Q 285.28 69.26 286.24 69.32
  Z"
/>
</g>
</svg>
